<?xml version="1.0" encoding="UTF-8" standalone="no"?>
<svg width="62px" height="62px" viewBox="0 0 62 62" version="1.1" xmlns="http://www.w3.org/2000/svg" xmlns:xlink="http://www.w3.org/1999/xlink">
    <!-- Generator: Sketch 3.8.3 (29802) - http://www.bohemiancoding.com/sketch -->
    <title>noun_526165_cc</title>
    <desc>Created with Sketch.</desc>
    <defs></defs>
    <g id="Page-1" stroke="none" stroke-width="1" fill="none" fill-rule="evenodd">
        <g id="noun_526165_cc" fill="#000000">
            <g id="Group">
                <rect id="Rectangle-path" x="13" y="31" width="2" height="2"></rect>
                <rect id="Rectangle-path" x="13" y="35" width="2" height="2"></rect>
                <rect id="Rectangle-path" x="13" y="39" width="2" height="2"></rect>
                <path d="M59,14 L53,14 L53,7.3 L45.7,0 L29,0 L29,14 L22,14 L22,13 C22,11.3 20.7,10 19,10 L9,10 C7.3,10 6,11.3 6,13 L6,14 L3,14 C1.3,14 0,15.3 0,17 L0,55 C0,56.7 1.3,58 3,58 L6,58 L6,59 C6,60.7 7.3,62 9,62 L19,62 C20.7,62 22,60.7 22,59 L22,58 L59,58 C60.7,58 62,56.7 62,55 L62,17 C62,15.3 60.7,14 59,14 L59,14 Z M53,26 L53,21 L55,21 L55,29 L27,29 L27,21 L29,21 L29,26 L53,26 L53,26 Z M46,3.1 L49.9,7 L46,7 L46,3.1 L46,3.1 Z M31,2 L44,2 L44,9 L51,9 L51,19 L51,24 L31,24 L31,19 L31,2 L31,2 Z M3,56 C2.4,56 2,55.6 2,55 L2,17 C2,16.4 2.4,16 3,16 L6,16 L6,56 L3,56 L3,56 Z M20,59 C20,59.6 19.6,60 19,60 L9,60 C8.4,60 8,59.6 8,59 L8,58 L8,14 L8,13 C8,12.4 8.4,12 9,12 L19,12 C19.6,12 20,12.4 20,13 L20,14 L20,58 L20,59 L20,59 Z M60,55 C60,55.6 59.6,56 59,56 L22,56 L22,16 L29,16 L29,19 L25,19 L25,31 L57,31 L57,19 L53,19 L53,16 L59,16 C59.6,16 60,16.4 60,17 L60,55 L60,55 Z" id="Shape"></path>
                <path d="M25,42 L33,42 L33,34 L25,34 L25,42 L25,42 Z M27,36 L31,36 L31,40 L27,40 L27,36 L27,36 Z" id="Shape"></path>
                <path d="M37,42 L45,42 L45,34 L37,34 L37,42 L37,42 Z M39,36 L43,36 L43,40 L39,40 L39,36 L39,36 Z" id="Shape"></path>
                <path d="M49,42 L57,42 L57,34 L49,34 L49,42 L49,42 Z M51,36 L55,36 L55,40 L51,40 L51,36 L51,36 Z" id="Shape"></path>
                <path d="M25,53 L33,53 L33,45 L25,45 L25,53 L25,53 Z M27,47 L31,47 L31,51 L27,51 L27,47 L27,47 Z" id="Shape"></path>
                <path d="M37,53 L45,53 L45,45 L37,45 L37,53 L37,53 Z M39,47 L43,47 L43,51 L39,51 L39,47 L39,47 Z" id="Shape"></path>
                <path d="M49,53 L57,53 L57,45 L49,45 L49,53 L49,53 Z M51,47 L55,47 L55,51 L51,51 L51,47 L51,47 Z" id="Shape"></path>
                <rect id="Rectangle-path" x="34" y="12" width="14" height="2"></rect>
                <rect id="Rectangle-path" x="34" y="18" width="14" height="2"></rect>
                <rect id="Rectangle-path" x="34" y="6" width="7" height="2"></rect>
            </g>
        </g>
    </g>
</svg>