<?xml version="1.0" encoding="utf-8"?>
<!-- Generator: Adobe Illustrator 27.5.0, SVG Export Plug-In . SVG Version: 6.00 Build 0)  -->
<svg version="1.1" id="Layer_1" xmlns="http://www.w3.org/2000/svg" xmlns:xlink="http://www.w3.org/1999/xlink" x="0px" y="0px"
	 viewBox="0 0 48 37" style="enable-background:new 0 0 48 37;" xml:space="preserve">
<style type="text/css">
	.st0{fill:#FFFFFF;stroke:#000000;stroke-miterlimit:10;}
	.st1{fill:none;}
</style>
<g id="Page-1">
	<g id="noun_331718_cc" transform="translate(-8.000000, -14.000000)">
		<g id="Group" transform="translate(8.000000, 14.000000)">
			<path id="Shape" class="st0" d="M47.7,17.3L45.4,14c0-0.1,0.1-0.2,0.2-0.4c0.2-0.3,0.4-0.6,0.4-1.2C46,5.6,40.4,0,33.5,0
				c-3.7,0-6.8,0.9-9.1,2.6C22.1,0.9,18.7,0,14.5,0C7.6,0,2,5.6,2,12.5c0,0.6,0.2,0.9,0.4,1.2c0.1,0.1,0.1,0.2,0.2,0.4l-2.3,3.2
				c-0.4,0.5-0.4,1.2-0.1,1.8C0.5,19.6,1.1,20,1.7,20h0.4c0,0,0.1,0,0.1,0s0,0.1,0,0.1l-0.8,2c-0.1,0.2,0,0.4,0.1,0.5L2,23.1
				l-0.3,0.3c-0.2,0.2-0.2,0.4-0.1,0.7l1.1,1.6c0.1,0.2,0.1,0.5,0,0.7l-0.3,0.4c-0.5,0.6-0.5,1.4-0.2,2c0.3,0.4,0.7,0.7,1.3,0.8
				l3.3,0.4C7.6,30,8.5,30.5,9,31.2c0.4,0.6,0.7,1.3,0.7,2.1l-0.1,3.2c0,0.1,0,0.3,0.1,0.4C9.9,36.9,10,37,10.1,37H23
				c0.1,0,0.3-0.1,0.4-0.2c0.1-0.1,0.1-0.2,0.1-0.4L23,26c0-0.7,0.2-1.5,0.7-2c0.2-0.2,0.4-0.4,0.6-0.5c0.5-0.3,0.9-0.7,1.3-1.1
				c0.2,0.1,0.4,0.3,0.6,0.4c1.2,0.8,1.9,2.1,1.8,3.5l-0.5,10.3c0,0.1,0,0.3,0.1,0.4c0.1,0.1,0.2,0.2,0.4,0.2h9.9
				c0.1,0,0.3-0.1,0.4-0.1c0.1-0.1,0.1-0.2,0.1-0.4l-0.1-3.2c0-0.7,0.2-1.5,0.7-2.1c0.6-0.7,1.4-1.2,2.3-1.3l3.3-0.4
				c0.5-0.1,1-0.4,1.2-0.8c0.4-0.6,0.3-1.4-0.2-2l-0.3-0.4c-0.2-0.2-0.2-0.5,0-0.7l1.1-1.6c0.1-0.2,0.1-0.5-0.1-0.7L46,23.1l0.4-0.4
				c0.1-0.1,0.2-0.4,0.1-0.5l-0.8-2c0,0,0-0.1,0-0.1c0,0,0,0,0.1,0h0.4c0.6,0,1.2-0.4,1.5-0.9C48.1,18.5,48.1,17.8,47.7,17.3
				L47.7,17.3z M23.7,22.6c-0.3,0.2-0.6,0.5-0.8,0.7C22.3,24.1,22,25,22,26l0.5,10H10.6l0-2.7c0-1-0.3-1.9-0.9-2.7
				c-0.7-1-1.8-1.6-3-1.7l-3.3-0.4c-0.2,0-0.4-0.2-0.5-0.3c-0.2-0.3-0.1-0.6,0.1-0.8l0.3-0.4c0.4-0.5,0.5-1.3,0.1-1.8l-0.8-1.2
				l0.4-0.3c0.1-0.1,0.2-0.2,0.2-0.4c0-0.1-0.1-0.3-0.2-0.4l-0.6-0.6l0.6-1.7c0.1-0.3,0.1-0.7-0.1-1S2.5,19,2.1,19H1.7
				c-0.3,0-0.5-0.1-0.6-0.4S1,18.1,1.1,17.9L4,13.8c0.2-0.2,0.1-0.5-0.1-0.7c-0.2-0.1-0.5-0.1-0.6,0C3.1,12.9,3,12.8,3,12.5
				C3,6.2,8.2,1,14.5,1c3.9,0,6.9,0.8,9.1,2.3C21.3,5.4,20,8.6,20,12.5c0,3.3,1.8,6.7,4.8,9.2C24.5,22,24.1,22.3,23.7,22.6
				L23.7,22.6z M28,13.5c0,2.9-0.9,5.5-2.5,7.4c-2.8-2.3-4.5-5.4-4.5-8.4c0-3.7,1.2-6.6,3.5-8.6C26.8,6,28,9.2,28,13.5L28,13.5z
				 M46.9,18.6c-0.1,0.2-0.4,0.4-0.6,0.4h-0.4c-0.4,0-0.7,0.2-0.9,0.5c-0.2,0.3-0.3,0.7-0.1,1l0.6,1.7l-0.6,0.6
				c-0.1,0.1-0.2,0.2-0.2,0.4c0,0.1,0.1,0.3,0.2,0.4l0.4,0.3l-0.8,1.2c-0.4,0.6-0.3,1.3,0.1,1.8l0.3,0.4c0.2,0.2,0.2,0.6,0.1,0.8
				c-0.1,0.2-0.3,0.3-0.5,0.3l-3.3,0.4c-1.2,0.1-2.3,0.8-3,1.7c-0.6,0.8-0.9,1.7-0.9,2.7l0,2.7h-8.9l0.4-9.7
				c0.1-1.8-0.8-3.5-2.3-4.4c-0.1-0.1-0.3-0.2-0.4-0.3c1.8-2.1,2.7-4.9,2.7-8c0-4.6-1.3-8-3.8-10.2C27.3,1.8,30.1,1,33.5,1
				C39.8,1,45,6.2,45,12.5c0,0.3-0.1,0.4-0.2,0.6c-0.2-0.2-0.4-0.2-0.6,0c-0.2,0.2-0.3,0.5-0.1,0.7l2.9,4.1
				C47.1,18.1,47.1,18.4,46.9,18.6L46.9,18.6z"/>
			<path id="Shape_00000129192850448570293990000003506306651434547114_" class="st0" d="M42.1,13.5c-0.1,0-2-0.4-3.3,0.9
				c-0.2,0.2-0.2,0.5,0,0.7c0.1,0.1,0.2,0.1,0.3,0.1c0.1,0,0.3-0.1,0.4-0.2c0.6-0.6,1.5-0.7,2-0.7v0.1c0,0.3,0.2,0.5,0.5,0.5
				s0.5-0.2,0.5-0.5V14C42.5,13.8,42.3,13.6,42.1,13.5L42.1,13.5z"/>
			<path id="Shape_00000083781078630365541500000002988015214719386525_" class="st0" d="M36.1,27.2c-1.8,0-2.9-1.9-2.9-1.9
				c-0.1-0.2-0.4-0.3-0.7-0.2c-0.2,0.1-0.3,0.4-0.2,0.7c0.1,0.1,1.3,2.4,3.8,2.4c0.3,0,0.5-0.2,0.5-0.5S36.3,27.2,36.1,27.2
				L36.1,27.2z"/>
			<path id="Shape_00000039093194294028239890000004857844198906795649_" class="st0" d="M6,13.5c-0.2,0.1-0.4,0.3-0.4,0.5v0.5
				c0,0.3,0.2,0.5,0.5,0.5s0.5-0.2,0.5-0.5v-0.1c0.5,0,1.4,0,2,0.7c0.1,0.1,0.2,0.2,0.4,0.2c0.1,0,0.2,0,0.3-0.1
				c0.2-0.2,0.2-0.5,0-0.7C8,13.1,6,13.5,6,13.5L6,13.5z"/>
			<path id="Shape_00000000224744680503020940000008832177847655067574_" class="st0" d="M15.5,25.1c-0.2-0.1-0.5,0-0.7,0.2
				c0,0-1,1.9-2.9,1.9c-0.3,0-0.5,0.2-0.5,0.5s0.2,0.5,0.5,0.5c2.4,0,3.7-2.3,3.8-2.4C15.9,25.5,15.8,25.2,15.5,25.1L15.5,25.1z"/>
		</g>
		<rect id="Rectangle-path" class="st1" width="64" height="64"/>
	</g>
</g>
</svg>
