<?xml version="1.0" encoding="utf-8"?>
<!-- Generator: Adobe Illustrator 27.0.1, SVG Export Plug-In . SVG Version: 6.00 Build 0)  -->
<svg width="96px" height="96px" viewBox="0 0 92 92" version="1.1" xmlns="http://www.w3.org/2000/svg" xmlns:xlink="http://www.w3.org/1999/xlink">
    <defs>
        <filter x="-50%" y="-50%" width="200%" height="200%" filterUnits="objectBoundingBox" id="filter-1">
            <feOffset dx="0" dy="2" in="SourceAlpha" result="shadowOffsetOuter1"></feOffset>
            <feGaussianBlur stdDeviation="2" in="shadowOffsetOuter1" result="shadowBlurOuter1"></feGaussianBlur>
            <feColorMatrix values="0 0 0 0 0   0 0 0 0 0   0 0 0 0 0  0 0 0 0.5 0" type="matrix" in="shadowBlurOuter1" result="shadowMatrixOuter1"></feColorMatrix>
            <feMerge>
                <feMergeNode in="shadowMatrixOuter1"></feMergeNode>
                <feMergeNode in="SourceGraphic"></feMergeNode>
            </feMerge>
        </filter>
    </defs>
   <g id="Page-1" stroke="none" stroke-width="1" fill="none" fill-rule="evenodd">
        <g id="research" filter="url(#filter-1)" transform="translate(4.000000, 2.000000)" fill="#FFFFFF">
            <g id="Page-1">
 		<g id="noun_30745_cc">
			<path id="Shape" class="st0" d="M75.8,48.5c0.2-0.6,0.3-1.3,0.3-2c0-0.8-0.2-1.6-0.5-2.4c0.4-0.3,0.8-0.6,1.1-0.8
					c7.3-5.7,10.4-10.6,8.8-14.2c-1.1-2.7-4.5-4-10-4c-2.2,0-4.8,0.2-7.5,0.7c-0.6-1.5-1.7-2.8-3.2-3.4c1.2-8.9,0.4-15.6-3.6-17.2
					c-0.6-0.2-1.2-0.3-1.8-0.3c-4.4,0-9.9,5.6-15.2,13.6C38.9,10.6,33.4,5.1,29,5.1c-0.7,0-1.3,0.1-1.9,0.4
					c-4.6,1.9-4.8,10.6-2.6,21.4c-4-0.8-7.7-1.2-10.9-1.2c-5.8,0-9.4,1.4-10.5,4.2c-1.9,4.6,4,10.9,13.3,17c-1.5,1-2.8,2-4.1,3
					C5,55.5,1.9,60.4,3.5,64c0.9,2,3,3.3,6.5,3.8c0.7,2.6,3,4.5,5.8,4.5c3,0,5.4-2.2,5.9-5c1-0.2,2.1-0.4,3.2-0.6
					c-2.1,10.8-1.6,19.5,3,21.3c0.6,0.2,1.2,0.3,1.8,0.3c4.4,0,9.9-5.6,15.2-13.6C50.2,82.6,55.7,88,60.1,88c0.7,0,1.3-0.1,1.9-0.4
					c4.6-1.9,4.8-10.6,2.6-21.4c4.1,0.8,7.7,1.2,10.9,1.2c5.8,0,9.4-1.4,10.5-4.2C87.6,59.3,83.2,53.9,75.8,48.5L75.8,48.5
					L75.8,48.5z M48.6,56.1c-1.3,0.6-2.6,1.1-3.9,1.6c-1.3-0.5-2.6-1-4-1.5c-1.3-0.5-2.7-1.1-3.9-1.6c-0.6-1.3-1.2-2.6-1.7-3.9
					c-0.6-1.3-1.1-2.6-1.6-3.9c0.5-1.3,1-2.6,1.5-4c0.5-1.3,1.1-2.6,1.6-3.9c1.3-0.6,2.6-1.2,3.9-1.7c1.3-0.6,2.6-1.1,3.9-1.6
					c1.3,0.5,2.6,1,4,1.5c1.3,0.5,2.6,1.1,3.9,1.6c0.6,1.3,1.1,2.6,1.7,3.9c0.6,1.3,1.1,2.6,1.6,3.9c-0.5,1.3-1,2.6-1.5,4
					c-0.5,1.3-1.1,2.6-1.6,3.9C51.2,55,49.9,55.5,48.6,56.1L48.6,56.1L48.6,56.1z M50.8,58.2c-0.2,0.5-0.5,1-0.7,1.4
					c-0.5-0.2-1-0.3-1.5-0.5c0.4-0.2,0.7-0.3,1.1-0.5C50,58.5,50.4,58.3,50.8,58.2L50.8,58.2L50.8,58.2z M40.7,59.2
					c-0.5,0.2-1,0.4-1.5,0.5c-0.2-0.5-0.5-0.9-0.7-1.4c0.4,0.2,0.7,0.3,1.1,0.5C40,58.9,40.4,59,40.7,59.2L40.7,59.2L40.7,59.2z
					 M32,50.6c0.2,0.4,0.3,0.7,0.5,1.1c0.2,0.4,0.3,0.7,0.5,1.1c-0.5-0.2-1-0.5-1.4-0.7C31.7,51.6,31.9,51.1,32,50.6L32,50.6
					L32,50.6z M31.4,41.3c0.5-0.2,1-0.5,1.4-0.7c-0.2,0.4-0.3,0.7-0.5,1.1c-0.2,0.4-0.3,0.7-0.4,1.1C31.8,42.3,31.6,41.8,31.4,41.3
					L31.4,41.3L31.4,41.3z M30.5,38.6c-0.9-2.9-1.7-5.6-2.4-8.2c2.6,0.6,5.4,1.4,8.2,2.2c-0.6,1.3-1.3,2.7-1.9,4
					C33.2,37.3,31.8,38,30.5,38.6L30.5,38.6L30.5,38.6z M29,42.6c0.5,1.4,1,2.8,1.5,4.1c-0.5,1.4-1,2.8-1.5,4.2
					c-2.7-1.4-5.2-2.7-7.5-4.1C23.9,45.3,26.3,43.9,29,42.6L29,42.6L29,42.6z M30.7,54.8c1.3,0.6,2.7,1.3,4,1.9
					c0.6,1.3,1.3,2.7,1.9,4c-2.8,0.9-5.6,1.7-8.2,2.4C29,60.4,29.8,57.7,30.7,54.8L30.7,54.8L30.7,54.8z M38.3,35
					c0.2-0.5,0.5-1,0.7-1.4c0.5,0.2,1,0.3,1.5,0.5c-0.4,0.2-0.7,0.3-1.1,0.5C39.1,34.7,38.7,34.8,38.3,35L38.3,35L38.3,35z M48.3,34
					c0.5-0.2,1-0.4,1.5-0.5c0.2,0.5,0.5,0.9,0.7,1.4c-0.4-0.2-0.7-0.3-1.1-0.5C49.1,34.3,48.7,34.1,48.3,34L48.3,34L48.3,34z
					 M59.9,33.3c-0.4,1.6-0.9,3.4-1.5,5.1c-1.3-0.6-2.7-1.3-4-1.9c-0.6-1.3-1.3-2.7-1.9-4c1.7-0.6,3.3-1,5-1.5
					C58,32,58.9,32.8,59.9,33.3L59.9,33.3L59.9,33.3z M56.7,51.5c0.1-0.4,0.3-0.7,0.4-1.1c0.2,0.5,0.4,1,0.5,1.5
					c-0.5,0.2-1,0.5-1.4,0.7C56.4,52.2,56.5,51.9,56.7,51.5L56.7,51.5L56.7,51.5z M56.1,40.4c0.5,0.2,1,0.5,1.4,0.7
					c-0.2,0.5-0.3,1-0.5,1.5c-0.2-0.4-0.3-0.7-0.5-1.1C56.4,41.1,56.3,40.7,56.1,40.4L56.1,40.4L56.1,40.4z M54.6,56.5
					c1.4-0.6,2.7-1.3,4-1.9c0.9,2.9,1.7,5.6,2.4,8.2c-2.6-0.6-5.4-1.4-8.2-2.2C53.4,59.1,54,57.8,54.6,56.5L54.6,56.5L54.6,56.5z
					 M60.1,50.6c-0.5-1.4-1-2.8-1.5-4.1c0.5-1.4,1-2.8,1.5-4.2c1.5,0.8,3,1.6,4.4,2.3c-0.2,0.6-0.3,1.3-0.3,2c0,0.6,0.1,1.1,0.2,1.7
					C63,49.1,61.6,49.8,60.1,50.6L60.1,50.6L60.1,50.6z M83.1,30.2c0.7,1.7-1,5.4-8,10.9c-0.3,0.3-0.7,0.5-1.1,0.8
					c-1-0.9-2.4-1.4-3.9-1.4c-1.6,0-3.1,0.7-4.2,1.7c-1.6-0.9-3.3-1.8-5-2.7c0.6-1.9,1.1-3.8,1.6-5.7c3.1,0,5.6-2.4,5.9-5.4
					c2.6-0.4,5-0.6,7.2-0.6C79.8,27.9,82.5,28.8,83.1,30.2L83.1,30.2L83.1,30.2z M59.5,7.6c0.3,0,0.5,0,0.8,0.1
					c2.1,0.9,3,6,1.9,14.2c-3.1,0.2-5.6,2.8-5.6,6c0,0.2,0,0.3,0,0.5c-1.8,0.5-3.5,1.1-5.4,1.7c-1.7-3.2-3.4-6.3-5.2-9.1
					C51.4,12.5,56.5,7.6,59.5,7.6L59.5,7.6L59.5,7.6z M44.3,23.6c1.4,2.2,2.8,4.7,4.2,7.4c-1.4,0.5-2.7,1-4.1,1.5
					c-1.4-0.5-2.8-1-4.2-1.5C41.6,28.4,43,25.9,44.3,23.6L44.3,23.6L44.3,23.6z M28.2,8c0.2-0.1,0.5-0.2,0.8-0.2
					c3,0,8.1,4.7,13.7,13.1c-1.8,2.9-3.5,5.9-5.1,9.2c-3.5-1.1-6.9-2-10.1-2.7C25,16.3,25.7,9.1,28.2,8L28.2,8L28.2,8z M5.7,30.9
					c0.6-1.5,3.5-2.4,7.9-2.4c3.3,0,7.2,0.5,11.5,1.4c0.8,3.3,1.8,6.6,2.9,10.1c-3.3,1.7-6.3,3.5-9.1,5.2C9.3,39,4.7,33.4,5.7,30.9
					L5.7,30.9L5.7,30.9z M25.4,63.7c-1.4,0.3-2.7,0.6-4,0.8c-0.8-2.4-3-4.2-5.7-4.2c-2.9,0-5.3,2-5.9,4.7c-2.1-0.4-3.4-1-3.8-2
					c-0.7-1.7,1-5.4,8-10.9c1.5-1.2,3.2-2.4,5-3.6c2.9,1.8,5.9,3.5,9.2,5.1C27.1,57,26.2,60.4,25.4,63.7L25.4,63.7L25.4,63.7z
					 M29.6,85.5c-0.3,0-0.5-0.1-0.8-0.1c-2.5-1-3.3-8.2-1.1-19.4c3.2-0.8,6.6-1.7,10.1-2.9c1.7,3.2,3.4,6.3,5.2,9.1
					C37.7,80.7,32.6,85.5,29.6,85.5L29.6,85.5L29.6,85.5z M44.7,69.5c-1.4-2.2-2.8-4.7-4.2-7.4c1.4-0.5,2.7-1,4.1-1.5
					c1.4,0.5,2.8,1,4.2,1.5C47.5,64.8,46.1,67.3,44.7,69.5L44.7,69.5L44.7,69.5z M60.9,85.1c-2.7,1.1-8.3-3.7-14.5-13
					c1.7-2.9,3.5-5.9,5.1-9.2c3.5,1.1,7,2,10.2,2.7C64.1,76.6,63.7,83.9,60.9,85.1L60.9,85.1L60.9,85.1z M83.3,62.3
					c-0.6,1.5-3.5,2.4-7.9,2.4c-3.3,0-7.2-0.5-11.5-1.4c-0.8-3.2-1.8-6.6-2.9-10.1c1.6-0.9,3.2-1.7,4.7-2.6c1.1,1.2,2.6,1.9,4.4,1.9
					c1.6,0,3.1-0.7,4.2-1.7C81,55.7,84.3,59.9,83.3,62.3L83.3,62.3L83.3,62.3z"/>
			</g>
		</g>
	</g>
</g>
</svg>
