<?xml version="1.0" encoding="utf-8"?>
<!-- Generator: Adobe Illustrator 27.0.1, SVG Export Plug-In . SVG Version: 6.00 Build 0)  -->
<svg version="1.1" id="Layer_1" xmlns="http://www.w3.org/2000/svg" xmlns:xlink="http://www.w3.org/1999/xlink" x="0px" y="0px"
	 viewBox="0 0 96 96" style="enable-background:new 0 0 96 96;" xml:space="preserve">
<style type="text/css">
	.st0{fill-rule:evenodd;clip-rule:evenodd;fill:#FFFFFF;}
</style>
<g id="Page-1_00000062164762800846387530000010184495159627741068_">
	<g id="research" transform="translate(4.000000, 2.000000)">
		<g id="Page-1">
			<g id="noun_30745_cc">
				<path id="Shape" class="st0" d="M74.9,47.9c0.2-0.6,0.3-1.3,0.3-2c0-0.8-0.2-1.6-0.5-2.4c0.4-0.3,0.8-0.6,1.1-0.8
					c7.3-5.7,10.4-10.6,8.8-14.2c-1.1-2.7-4.5-4-10-4c-2.2,0-4.8,0.2-7.5,0.7c-0.6-1.5-1.7-2.8-3.2-3.4c1.2-8.9,0.4-15.6-3.6-17.2
					c-0.6-0.2-1.2-0.3-1.8-0.3c-4.4,0-9.9,5.6-15.2,13.6C38,10,32.5,4.5,28.1,4.5c-0.7,0-1.3,0.1-1.9,0.4
					c-4.6,1.9-4.8,10.6-2.6,21.4c-4-0.8-7.7-1.2-10.9-1.2c-5.8,0-9.4,1.4-10.5,4.2c-1.9,4.6,4,10.9,13.2,17c-1.5,1-2.8,2-4.1,3
					C4.1,54.9,1.1,59.8,2.6,63.4c0.9,2,3,3.3,6.5,3.8c0.7,2.6,3,4.5,5.8,4.5c3,0,5.4-2.2,5.9-5c1-0.2,2.1-0.4,3.2-0.6
					c-2.1,10.8-1.6,19.5,3,21.3c0.6,0.2,1.2,0.3,1.8,0.3c4.4,0,9.9-5.6,15.2-13.6c5.4,7.9,10.9,13.4,15.3,13.4
					c0.7,0,1.3-0.1,1.9-0.4c4.6-1.9,4.8-10.6,2.6-21.4c4.1,0.8,7.7,1.2,10.9,1.2c5.8,0,9.4-1.4,10.5-4.2
					C86.7,58.7,82.3,53.3,74.9,47.9L74.9,47.9L74.9,47.9z M47.7,55.5c-1.3,0.6-2.6,1.1-3.9,1.6c-1.3-0.5-2.6-1-4-1.5
					c-1.3-0.5-2.7-1.1-3.9-1.6c-0.6-1.3-1.2-2.6-1.7-3.9c-0.6-1.3-1.1-2.6-1.6-3.9c0.5-1.3,1-2.6,1.5-4c0.5-1.3,1.1-2.6,1.6-3.9
					c1.3-0.6,2.6-1.2,3.9-1.7c1.3-0.6,2.6-1.1,3.9-1.6c1.3,0.5,2.6,1,4,1.5c1.3,0.5,2.6,1.1,3.9,1.6c0.6,1.3,1.1,2.6,1.7,3.9
					c0.6,1.3,1.1,2.6,1.6,3.9c-0.5,1.3-1,2.6-1.5,4c-0.5,1.3-1.1,2.6-1.6,3.9C50.3,54.3,49,54.9,47.7,55.5L47.7,55.5L47.7,55.5z
					 M49.9,57.6c-0.2,0.5-0.5,1-0.7,1.4c-0.5-0.2-1-0.3-1.5-0.5c0.4-0.2,0.7-0.3,1.1-0.5C49.1,57.9,49.5,57.7,49.9,57.6L49.9,57.6
					L49.9,57.6z M39.9,58.6c-0.5,0.2-1,0.4-1.5,0.5c-0.2-0.5-0.5-0.9-0.7-1.4c0.4,0.2,0.7,0.3,1.1,0.5
					C39.1,58.3,39.5,58.4,39.9,58.6L39.9,58.6L39.9,58.6z M31.1,50c0.2,0.4,0.3,0.7,0.5,1.1s0.3,0.7,0.5,1.1c-0.5-0.2-1-0.5-1.4-0.7
					C30.8,51,31,50.5,31.1,50L31.1,50L31.1,50z M30.5,40.7c0.5-0.2,1-0.5,1.4-0.7c-0.2,0.4-0.3,0.7-0.5,1.1
					c-0.1,0.4-0.3,0.7-0.4,1.1C30.9,41.7,30.7,41.2,30.5,40.7L30.5,40.7L30.5,40.7z M29.6,38c-0.9-2.9-1.7-5.6-2.4-8.2
					c2.6,0.6,5.4,1.4,8.2,2.2c-0.6,1.3-1.3,2.7-1.9,4C32.3,36.7,30.9,37.4,29.6,38L29.6,38L29.6,38z M28.1,41.9
					c0.5,1.4,1,2.8,1.5,4.1c-0.5,1.4-1,2.8-1.5,4.2c-2.7-1.4-5.2-2.7-7.5-4.1C23,44.7,25.5,43.3,28.1,41.9L28.1,41.9L28.1,41.9z
					 M29.8,54.1c1.3,0.6,2.7,1.3,4,1.9c0.6,1.3,1.3,2.7,1.9,4c-2.8,0.9-5.6,1.7-8.2,2.4C28.1,59.8,28.9,57.1,29.8,54.1L29.8,54.1
					L29.8,54.1z M37.4,34.4c0.2-0.5,0.5-1,0.7-1.4c0.5,0.2,1,0.3,1.5,0.5c-0.4,0.2-0.7,0.3-1.1,0.5C38.2,34.1,37.8,34.2,37.4,34.4
					L37.4,34.4L37.4,34.4z M47.5,33.4c0.5-0.2,1-0.4,1.5-0.5c0.2,0.5,0.5,0.9,0.7,1.4c-0.4-0.2-0.7-0.3-1.1-0.5
					C48.2,33.7,47.8,33.5,47.5,33.4L47.5,33.4L47.5,33.4z M59,32.7c-0.4,1.6-0.9,3.4-1.5,5.1c-1.3-0.6-2.7-1.3-4-1.9
					c-0.6-1.3-1.3-2.7-1.9-4c1.7-0.6,3.3-1,5-1.5C57.1,31.4,58,32.2,59,32.7L59,32.7L59,32.7z M55.8,50.9c0.1-0.4,0.3-0.7,0.4-1.1
					c0.2,0.5,0.4,1,0.5,1.5c-0.5,0.2-1,0.5-1.4,0.7C55.5,51.6,55.6,51.3,55.8,50.9L55.8,50.9L55.8,50.9z M55.2,39.8
					c0.5,0.2,1,0.5,1.4,0.7c-0.2,0.5-0.3,1-0.5,1.5c-0.2-0.4-0.3-0.7-0.5-1.1C55.6,40.5,55.4,40.1,55.2,39.8L55.2,39.8L55.2,39.8z
					 M53.7,55.8c1.4-0.6,2.7-1.3,4-1.9c0.9,2.9,1.7,5.6,2.4,8.2c-2.6-0.6-5.4-1.4-8.2-2.2C52.5,58.5,53.1,57.2,53.7,55.8L53.7,55.8
					L53.7,55.8z M59.2,50c-0.5-1.4-1-2.8-1.5-4.1c0.5-1.4,1-2.8,1.5-4.2c1.5,0.8,3,1.6,4.4,2.3c-0.2,0.6-0.3,1.3-0.3,2
					c0,0.6,0.1,1.1,0.2,1.7C62.1,48.4,60.7,49.2,59.2,50L59.2,50L59.2,50z M82.2,29.6c0.7,1.7-1,5.4-8,10.9
					c-0.3,0.3-0.7,0.5-1.1,0.8c-1-0.9-2.4-1.4-3.9-1.4c-1.6,0-3.1,0.7-4.2,1.7c-1.6-0.9-3.3-1.8-5-2.7c0.6-1.9,1.1-3.8,1.6-5.7
					c3.1,0,5.6-2.3,5.9-5.4c2.6-0.4,5-0.6,7.2-0.6C78.9,27.3,81.6,28.2,82.2,29.6L82.2,29.6L82.2,29.6z M58.6,7c0.3,0,0.5,0,0.8,0.1
					c2.1,0.9,3,6,1.9,14.2c-3.1,0.2-5.6,2.8-5.6,6c0,0.2,0,0.3,0,0.5c-1.8,0.5-3.5,1.1-5.4,1.7c-1.7-3.2-3.4-6.3-5.2-9.1
					C50.5,11.9,55.6,7,58.6,7L58.6,7L58.6,7z M43.5,23c1.4,2.2,2.8,4.7,4.2,7.4c-1.4,0.5-2.7,1-4.1,1.5c-1.4-0.5-2.8-1-4.2-1.5
					C40.7,27.8,42.1,25.3,43.5,23L43.5,23L43.5,23z M27.3,7.4c0.2-0.1,0.5-0.2,0.8-0.2c3,0,8.1,4.7,13.7,13.1
					c-1.8,2.9-3.5,5.9-5.1,9.2c-3.5-1.1-6.9-2-10.1-2.7C24.2,15.7,24.8,8.5,27.3,7.4L27.3,7.4L27.3,7.4z M4.9,30.3
					c0.6-1.5,3.5-2.4,7.9-2.4c3.3,0,7.2,0.5,11.5,1.4c0.8,3.3,1.8,6.6,2.9,10.1c-3.3,1.7-6.3,3.5-9.1,5.2
					C8.5,38.3,3.8,32.8,4.9,30.3L4.9,30.3L4.9,30.3z M24.6,63.1c-1.4,0.3-2.7,0.6-4,0.8c-0.8-2.4-3-4.2-5.7-4.2
					c-2.9,0-5.3,2-5.9,4.7c-2.1-0.4-3.4-1-3.8-2c-0.7-1.7,1-5.4,8-10.9c1.5-1.2,3.2-2.4,5-3.6c2.9,1.8,5.9,3.5,9.2,5.1
					C26.2,56.4,25.3,59.8,24.6,63.1L24.6,63.1L24.6,63.1z M28.7,84.9c-0.3,0-0.5-0.1-0.8-0.1c-2.5-1-3.3-8.2-1.1-19.4
					c3.2-0.8,6.6-1.7,10.1-2.9c1.7,3.2,3.4,6.3,5.2,9.1C36.8,80.1,31.7,84.9,28.7,84.9L28.7,84.9L28.7,84.9z M43.9,68.9
					c-1.4-2.2-2.8-4.7-4.2-7.4c1.4-0.5,2.7-1,4.1-1.5c1.4,0.5,2.8,1,4.2,1.5C46.6,64.2,45.2,66.7,43.9,68.9L43.9,68.9L43.9,68.9z
					 M60,84.5c-2.7,1.1-8.3-3.7-14.5-13c1.7-2.9,3.5-5.9,5.1-9.2c3.5,1.1,7,2,10.2,2.7C63.2,76,62.8,83.3,60,84.5L60,84.5L60,84.5z
					 M82.5,61.7c-0.6,1.5-3.5,2.4-7.9,2.4c-3.3,0-7.2-0.5-11.5-1.4c-0.8-3.2-1.8-6.6-2.9-10.1c1.6-0.9,3.2-1.7,4.7-2.6
					c1.1,1.2,2.6,1.9,4.4,1.9c1.6,0,3.1-0.7,4.2-1.7C80.1,55.1,83.4,59.3,82.5,61.7L82.5,61.7L82.5,61.7z"/>
			</g>
		</g>
	</g>
</g>
</svg>
