<?xml version="1.0" encoding="utf-8"?>
<!-- Generator: Adobe Illustrator 27.0.1, SVG Export Plug-In . SVG Version: 6.00 Build 0)  -->
<svg width="96px" height="96px" viewBox="0 0 92 92" version="1.1" xmlns="http://www.w3.org/2000/svg" xmlns:xlink="http://www.w3.org/1999/xlink">
    <defs>
        <filter x="-50%" y="-50%" width="200%" height="200%" filterUnits="objectBoundingBox" id="filter-1">
            <feOffset dx="0" dy="2" in="SourceAlpha" result="shadowOffsetOuter1"></feOffset>
            <feGaussianBlur stdDeviation="2" in="shadowOffsetOuter1" result="shadowBlurOuter1"></feGaussianBlur>
            <feColorMatrix values="0 0 0 0 0   0 0 0 0 0   0 0 0 0 0  0 0 0 0.5 0" type="matrix" in="shadowBlurOuter1" result="shadowMatrixOuter1"></feColorMatrix>
            <feMerge>
                <feMergeNode in="shadowMatrixOuter1"></feMergeNode>
                <feMergeNode in="SourceGraphic"></feMergeNode>
            </feMerge>
        </filter>
    </defs>
   <g id="Page-1" stroke="none" stroke-width="1" fill="none" fill-rule="evenodd">
        <g id="communication" filter="url(#filter-1)" transform="translate(4.000000, 2.000000)" fill="#FFFFFF">
            <g id="Page-1">
 		<g id="noun_30745_cc">
			<path id="Shape" class="st0" d="M2.1-1.3h90.5c1,0,1.8,0.8,1.8,1.8v6.2c0,1-0.8,1.8-1.8,1.8h-1.3v47.1c0,0.7-0.3,1.4-0.8,1.9l0,0
		c-0.5,0.5-1.2,0.8-1.9,0.8H70.1v3.5h-3.8v5.5c-1.1-1.9-2.5-3.4-4.1-4.4c-1.9-1.2-3.9-1.8-5.9-1.8c-2,0-4.1,0.6-5.9,1.9
		c-1.9,1.3-3.7,3.4-4.9,6.2h-6.7c-0.2-0.1-0.2-0.1-0.4-0.2c-1.2-0.4-2.3-0.6-3.4-0.6c-1.1,0-2.3,0.2-3.4,0.6
		c-0.2,0.1-0.2,0.1-0.4,0.2h-2.5v-7.3h-3.8v-3.5H6c-0.7,0-1.4-0.3-1.9-0.8c-0.1-0.1-0.1-0.1-0.2-0.2c-0.4-0.5-0.6-1.1-0.6-1.7V8.4
		H2.1c-1,0-1.8-0.8-1.8-1.8V0.5C0.2-0.5,1.1-1.3,2.1-1.3L2.1-1.3z M50.2,83c-7.9,0-2.7,0.6-1.6-8c1.6-12.8,13.7-12.8,15.5,0
		c1.2,8.2,6.1,8-1.6,8h-3c0,2.1-0.3,3.2,1.9,4.4c1.1,0.6,3.2,1,4.9,1.7c2.7-2.3,7.5-0.8,8-5c0.1-0.6-1.4-3-1.8-4.2
		c-0.7-1.2-1-3-0.2-4.3c0.3-0.5,0.2-2.3,0.2-3c0-6.8,11.9-6.8,11.9,0c0,0.9-0.2,2.4,0.2,3.1c0.8,1.1,0.4,3.1-0.3,4.2
		c-0.4,1.2-2,3.6-1.9,4.2c1.2,5.9,9.2-0.4,9.2,10.1c-31,0-61.9,0-92.9,0c0-10.8,10.1-4.8,10.9-11.4c0.1-0.7-1.6-3.4-2-4.8
		c-0.9-1.3-1.1-3.4-0.2-4.8c0.4-0.5,0.2-2.6,0.2-3.4c0-7.6,13.3-7.6,13.3,0c0,0.9-0.2,2.7,0.3,3.5c0.9,1.2,0.4,3.5-0.3,4.7
		c-0.5,1.4-2.3,4-2.1,4.8c0.5,2.8,7.6,4.8,10.1,5.9c1.4-0.7,2.5-1.6,2.7-2.6c0.1-0.5-1.2-2.4-1.4-3.4c-0.6-0.9-0.8-2.4-0.2-3.4
		c0.2-0.4,0.2-1.9,0.2-2.4c0-5.4,9.5-5.5,9.5,0c0,0.7-0.2,2,0.2,2.5c0.6,0.9,0.3,2.5-0.2,3.4c-0.3,1-1.6,2.8-1.5,3.4
		c0.7,3.6,4.5,1.6,6.4,4.1c1.7-1.3,5.1-1.7,7.3-3c1.9-1.2,1.6-2.3,1.6-4.2L50.2,83L50.2,83L50.2,83z M22.5,45.3h16.1v-4.6h-0.8
		c-0.4,0-0.8-0.3-0.8-0.8v-1.9c0-1.4,1.2-2.6,2.6-2.6h0.7c1.4,0,2.6,1.2,2.6,2.6v1.9c0,0.4-0.3,0.8-0.8,0.8h-0.8v4.6H53v-4.6h-0.8
		c-0.4,0-0.7-0.3-0.7-0.8v-1.9c0-1.4,1.2-2.6,2.6-2.6h0.7c1.4,0,2.6,1.2,2.6,2.6v1.9c0,0.4-0.3,0.8-0.7,0.8h-0.8v4.6h16.2
		c0.7,0,1.2,0.5,1.2,1.2V54c0,0.4-0.2,0.7-0.5,0.9h15.1V8.7H6.6v46.3h15.1c-0.2-0.2-0.4-0.5-0.4-0.9v-7.4
		C21.2,45.9,21.8,45.3,22.5,45.3L22.5,45.3z"/>
			</g>
		</g>
	</g>
</g>
</svg>
