<?xml version="1.0" encoding="UTF-8" standalone="no"?>
<svg width="64px" height="60px" viewBox="0 0 64 60" version="1.1" xmlns="http://www.w3.org/2000/svg" xmlns:xlink="http://www.w3.org/1999/xlink">
    <!-- Generator: Sketch 3.8.3 (29802) - http://www.bohemiancoding.com/sketch -->
    <title>Slice 1</title>
    <desc>Created with Sketch.</desc>
    <defs></defs>
    <g id="Page-1" stroke="none" stroke-width="1" fill="none" fill-rule="evenodd">
        <g id="noun_342613_cc" fill="#000000">
            <g id="Group">
                <g id="Shape">
                    <path d="M44,58 L41.541,58 C40.075,58 38.916,56.404 38.582,55.493 C38.4,54.996 38.228,53.846 38.119,53 L25.881,53 C25.772,53.846 25.6,54.996 25.418,55.493 C25.084,56.404 23.925,58 22.459,58 L20,58 C19.448,58 19,58.448 19,59 C19,59.552 19.448,60 20,60 L44,60 C44.552,60 45,59.552 45,59 C45,58.448 44.552,58 44,58 L44,58 L44,58 Z M62,42 C62,43.105 61.105,44 60,44 L4,44 C2.895,44 2,43.105 2,42 L2,4 C2,2.895 2.895,2 4,2 L60,2 C61.105,2 62,2.895 62,4 L62,42 L62,42 Z M32,49 C31.448,49 31,48.552 31,48 C31,47.448 31.448,47 32,47 C32.552,47 33,47.448 33,48 C33,48.552 32.552,49 32,49 L32,49 L32,49 Z M60,0 L4,0 C1.791,0 0,1.791 0,4 L0,48 C0,50.209 1.791,52 4,52 L60,52 C62.209,52 64,50.209 64,48 L64,4 C64,1.791 62.209,0 60,0 L60,0 L60,0 Z M11,8 L3,8 L3,9 L11,9 L11,12 L3,12 L3,13 L11,13 L11,16 L3,16 L3,17 L11,17 L11,20 L3,20 L3,21 L11,21 L11,24 L3,24 L3,25 L11,25 L11,28 L3,28 L3,29 L11,29 L11,32 L3,32 L3,33 L11,33 L11,36 L3,36 L3,37 L11,37 L11,40 L3,40 L3,41 L11,41 L11,43 L12,43 L12,9 L61,9 L61,8 L12,8 L11,8 L11,8 Z M46.5,17 L41.5,17 C41.224,17 41,17.224 41,17.5 L41,19.5 C41,19.776 41.224,20 41.5,20 L46.5,20 C46.776,20 47,19.776 47,19.5 L47,17.5 C47,17.224 46.776,17 46.5,17 L46.5,17 L46.5,17 Z M60.5,21 L55.5,21 C55.224,21 55,21.224 55,21.5 L55,23.5 C55,23.776 55.224,24 55.5,24 L60.5,24 C60.776,24 61,23.776 61,23.5 L61,21.5 C61,21.224 60.776,21 60.5,21 L60.5,21 L60.5,21 Z M53.5,21 L48.5,21 C48.224,21 48,21.224 48,21.5 L48,23.5 C48,23.776 48.224,24 48.5,24 L53.5,24 C53.776,24 54,23.776 54,23.5 L54,21.5 C54,21.224 53.776,21 53.5,21 L53.5,21 L53.5,21 Z M46.5,21 L41.5,21 C41.224,21 41,21.224 41,21.5 L41,23.5 C41,23.776 41.224,24 41.5,24 L46.5,24 C46.776,24 47,23.776 47,23.5 L47,21.5 C47,21.224 46.776,21 46.5,21 L46.5,21 L46.5,21 Z M40,23.5 L40,21.5 C40,21.224 39.776,21 39.5,21 L34.5,21 C34.224,21 34,21.224 34,21.5 L34,23.5 C34,23.776 34.224,24 34.5,24 L39.5,24 C39.776,24 40,23.776 40,23.5 L40,23.5 L40,23.5 Z M40.5,37 L35.5,37 C35.224,37 35,37.224 35,37.5 L35,39.5 C35,39.776 35.224,40 35.5,40 L40.5,40 C40.776,40 41,39.776 41,39.5 L41,37.5 C41,37.224 40.776,37 40.5,37 L40.5,37 L40.5,37 Z M33.5,37 L28.5,37 C28.224,37 28,37.224 28,37.5 L28,39.5 C28,39.776 28.224,40 28.5,40 L33.5,40 C33.776,40 34,39.776 34,39.5 L34,37.5 C34,37.224 33.776,37 33.5,37 L33.5,37 L33.5,37 Z M26.5,37 L21.5,37 C21.224,37 21,37.224 21,37.5 L21,39.5 C21,39.776 21.224,40 21.5,40 L26.5,40 C26.776,40 27,39.776 27,39.5 L27,37.5 C27,37.224 26.776,37 26.5,37 L26.5,37 L26.5,37 Z M33,23.5 L33,21.5 C33,21.224 32.776,21 32.5,21 L27.5,21 C27.224,21 27,21.224 27,21.5 L27,23.5 C27,23.776 27.224,24 27.5,24 L32.5,24 C32.776,24 33,23.776 33,23.5 L33,23.5 L33,23.5 Z M26,23.5 L26,21.5 C26,21.224 25.776,21 25.5,21 L20.5,21 C20.224,21 20,21.224 20,21.5 L20,23.5 C20,23.776 20.224,24 20.5,24 L25.5,24 C25.776,24 26,23.776 26,23.5 L26,23.5 L26,23.5 Z M18.5,21 L13.5,21 C13.224,21 13,21.224 13,21.5 L13,23.5 C13,23.776 13.224,24 13.5,24 L18.5,24 C18.776,24 19,23.776 19,23.5 L19,21.5 C19,21.224 18.776,21 18.5,21 L18.5,21 L18.5,21 Z M34.5,20 L39.5,20 C39.776,20 40,19.776 40,19.5 L40,17.5 C40,17.224 39.776,17 39.5,17 L34.5,17 C34.224,17 34,17.224 34,17.5 L34,19.5 C34,19.776 34.224,20 34.5,20 L34.5,20 L34.5,20 Z M27,19.5 C27,19.776 27.224,20 27.5,20 L32.5,20 C32.776,20 33,19.776 33,19.5 L33,17.5 C33,17.224 32.776,17 32.5,17 L27.5,17 C27.224,17 27,17.224 27,17.5 L27,19.5 L27,19.5 Z M60.5,29 L55.5,29 C55.224,29 55,29.224 55,29.5 L55,31.5 C55,31.776 55.224,32 55.5,32 L60.5,32 C60.776,32 61,31.776 61,31.5 L61,29.5 C61,29.224 60.776,29 60.5,29 L60.5,29 L60.5,29 Z M53.5,29 L48.5,29 C48.224,29 48,29.224 48,29.5 L48,31.5 C48,31.776 48.224,32 48.5,32 L53.5,32 C53.776,32 54,31.776 54,31.5 L54,29.5 C54,29.224 53.776,29 53.5,29 L53.5,29 L53.5,29 Z M46.5,29 L41.5,29 C41.224,29 41,29.224 41,29.5 L41,31.5 C41,31.776 41.224,32 41.5,32 L46.5,32 C46.776,32 47,31.776 47,31.5 L47,29.5 C47,29.224 46.776,29 46.5,29 L46.5,29 L46.5,29 Z M27.5,16 L32.5,16 C32.776,16 33,15.776 33,15.5 L33,13.5 C33,13.224 32.776,13 32.5,13 L27.5,13 C27.224,13 27,13.224 27,13.5 L27,15.5 C27,15.776 27.224,16 27.5,16 L27.5,16 L27.5,16 Z M20.5,16 L25.5,16 C25.776,16 26,15.776 26,15.5 L26,13.5 C26,13.224 25.776,13 25.5,13 L20.5,13 C20.224,13 20,13.224 20,13.5 L20,15.5 C20,15.776 20.224,16 20.5,16 L20.5,16 L20.5,16 Z M18.5,13 L13.5,13 C13.224,13 13,13.224 13,13.5 L13,15.5 C13,15.776 13.224,16 13.5,16 L18.5,16 C18.776,16 19,15.776 19,15.5 L19,13.5 C19,13.224 18.776,13 18.5,13 L18.5,13 L18.5,13 Z"></path>
                </g>
            </g>
        </g>
    </g>
</svg>