<?xml version="1.0" encoding="UTF-8" standalone="no"?>
<svg width="94px" height="82px" viewBox="0 0 94 82" version="1.1" xmlns="http://www.w3.org/2000/svg" xmlns:xlink="http://www.w3.org/1999/xlink">
    <!-- Generator: Sketch 3.8.3 (29802) - http://www.bohemiancoding.com/sketch -->
    <title>noun_57751_cc</title>
    <desc>Created with Sketch.</desc>
    <defs></defs>
    <g id="Page-1" stroke="none" stroke-width="1" fill="none" fill-rule="evenodd">
        <g id="noun_57751_cc" fill="#000000">
            <path d="M90,0 L4,0 C1.8,0 0,1.8 0,4 L0,63 C0,65.2 1.8,67 4,67 L36.9,67 L35.5,76.6 C35.2,78.6 33.5,80 31.5,80 L29.5,80 C29.2,80 29,80.2 29,80.5 L29,81.5 C29,81.8 29.2,82 29.5,82 L64.5,82 C64.8,82 65,81.8 65,81.5 L65,80.5 C65,80.2 64.8,80 64.5,80 L62.5,80 C60.5,80 58.8,78.5 58.5,76.6 L57.1,67 L90,67 C92.2,67 94,65.2 94,63 L94,4 C94,1.8 92.2,0 90,0 L90,0 Z M4,2 L90,2 C91.1,2 92,2.9 92,4 L92,56 L2,56 L2,4 C2,2.9 2.9,2 4,2 L4,2 Z M90,65 L4,65 C2.9,65 2,64.1 2,63 L2,57 L92,57 L92,63 C92,64.1 91.1,65 90,65 L90,65 Z" id="Shape"></path>
        </g>
    </g>
</svg>