<?xml version="1.0" encoding="UTF-8" standalone="no"?>
<svg width="40px" height="86px" viewBox="0 0 40 86" version="1.1" xmlns="http://www.w3.org/2000/svg" xmlns:xlink="http://www.w3.org/1999/xlink">
    <!-- Generator: Sketch 3.8.3 (29802) - http://www.bohemiancoding.com/sketch -->
    <title>noun_186755_cc</title>
    <desc>Created with Sketch.</desc>
    <defs></defs>
    <g id="Page-1" stroke="none" stroke-width="1" fill="none" fill-rule="evenodd">
        <g id="noun_186755_cc" transform="translate(-1.000000, -1.000000)">
            <g id="Group" transform="translate(0.441900, 0.426850)">
                <path d="M10.62886,38.2858 L30.95833,38.08095" id="Shape" stroke="#000000" stroke-width="1.53000009"></path>
                <path d="M10.27036,43.37586 L32.18423,43.17101" id="Shape" stroke="#000000" stroke-width="1.53000009"></path>
                <path d="M10.19618,48.66024 L32.11005,48.45539" id="Shape" stroke="#000000" stroke-width="1.53000009"></path>
                <path d="M12.13333,53.84746 L28.77137,53.64261" id="Shape" stroke="#000000" stroke-width="1.53000009"></path>
                <path d="M10.07912,75.97115 L32.54021,76.27316" id="Shape" stroke="#000000" stroke-width="1.52999997"></path>
                <path d="M8.6964,81.39146 L32.66579,81.49914" id="Shape" stroke="#000000" stroke-width="1.52999997"></path>
                <path d="M12.82201,70.55084 L29.94475,70.65853" id="Shape" stroke="#000000" stroke-width="1.52999997"></path>
                <rect id="Rectangle-path" fill="#000000" transform="translate(12.957207, 30.846902) rotate(2.815372) translate(-12.957207, -30.846902) " x="11.9953263" y="29.7975768" width="1.92376081" height="2.09864951"></rect>
                <rect id="Rectangle-path" fill="#000000" transform="translate(13.682282, 30.548235) rotate(2.815372) translate(-13.682282, -30.548235) " x="12.7204013" y="29.4989103" width="1.92376081" height="2.09864951"></rect>
                <rect id="Rectangle-path" fill="#000000" transform="translate(13.656354, 31.962118) rotate(2.815372) translate(-13.656354, -31.962118) " x="12.6944733" y="30.9127934" width="1.92376081" height="2.09864951"></rect>
                <rect id="Rectangle-path" fill="#000000" transform="translate(13.616413, 29.601107) rotate(2.815372) translate(-13.616413, -29.601107) " x="12.6545326" y="28.5517818" width="1.92376081" height="2.09864951"></rect>
                <rect id="Rectangle-path" fill="#000000" transform="translate(14.866163, 31.823494) rotate(2.815372) translate(-14.866163, -31.823494) " x="13.9042824" y="30.7741691" width="1.92376081" height="2.09864951"></rect>
                <rect id="Rectangle-path" fill="#000000" transform="translate(10.056772, 28.238340) rotate(2.815372) translate(-10.056772, -28.238340) " x="9.09489209" y="27.1890154" width="1.92376081" height="2.09864951"></rect>
                <rect id="Rectangle-path" fill="#000000" transform="translate(15.215935, 28.325772) rotate(2.815372) translate(-15.215935, -28.325772) " x="14.2540548" y="27.2764474" width="1.92376081" height="2.09864951"></rect>
                <rect id="Rectangle-path" fill="#000000" transform="translate(28.669344, 30.949853) rotate(177.184628) translate(-28.669344, -30.949853) " x="27.7074638" y="29.9005284" width="1.92376081" height="2.09864951"></rect>
                <rect id="Rectangle-path" fill="#000000" transform="translate(25.907867, 29.838359) rotate(177.184628) translate(-25.907867, -29.838359) " x="24.9459866" y="28.7890343" width="1.92376081" height="2.09864951"></rect>
                <rect id="Rectangle-path" fill="#000000" transform="translate(28.800978, 28.968586) rotate(177.184628) translate(-28.800978, -28.968586) " x="27.8390974" y="27.9192614" width="1.92376081" height="2.09864951"></rect>
                <rect id="Rectangle-path" fill="#000000" transform="translate(26.470647, 29.112761) rotate(177.184628) translate(-26.470647, -29.112761) " x="25.5087662" y="28.0634361" width="1.92376081" height="2.09864951"></rect>
                <rect id="Rectangle-path" fill="#000000" transform="translate(26.871551, 31.551467) rotate(177.598854) translate(-26.871551, -31.551467) " x="25.7438587" y="30.5016671" width="2.25538469" height="2.09959961"></rect>
                <rect id="Rectangle-path" fill="#000000" transform="translate(23.322671, 29.549950) rotate(177.184628) translate(-23.322671, -29.549950) " x="22.3607903" y="28.5006252" width="1.92376081" height="2.09864951"></rect>
                <rect id="Rectangle-path" fill="#000000" transform="translate(27.712723, 24.954982) rotate(198.053494) translate(-27.712723, -24.954982) " x="26.7508427" y="23.9056574" width="1.9237608" height="2.0986495"></rect>
                <rect id="Rectangle-path" fill="#000000" transform="translate(28.887871, 21.362710) rotate(198.053494) translate(-28.887871, -21.362710) " x="27.9259905" y="20.3133851" width="1.9237608" height="2.0986495"></rect>
                <rect id="Rectangle-path" fill="#000000" transform="translate(31.897661, 21.820107) rotate(198.053494) translate(-31.897661, -21.820107) " x="30.9357802" y="20.7707822" width="1.9237608" height="2.0986495"></rect>
                <rect id="Rectangle-path" fill="#000000" transform="translate(30.600050, 23.241563) rotate(198.053494) translate(-30.600050, -23.241563) " x="29.6381697" y="22.1922381" width="1.9237608" height="2.0986495"></rect>
                <rect id="Rectangle-path" fill="#000000" transform="translate(29.260984, 26.020903) rotate(198.053494) translate(-29.260984, -26.020903) " x="28.2991032" y="24.9715786" width="1.9237608" height="2.0986495"></rect>
                <rect id="Rectangle-path" fill="#000000" transform="translate(27.624279, 30.171905) rotate(198.053494) translate(-27.624279, -30.171905) " x="26.6623991" y="29.1225799" width="1.9237608" height="2.0986495"></rect>
                <rect id="Rectangle-path" fill="#000000" transform="translate(27.845217, 22.528816) rotate(198.053494) translate(-27.845217, -22.528816) " x="26.8833361" y="21.4794917" width="1.9237608" height="2.0986495"></rect>
                <rect id="Rectangle-path" fill="#000000" transform="translate(26.342239, 23.388185) rotate(198.053494) translate(-26.342239, -23.388185) " x="25.3803584" y="22.3388605" width="1.9237608" height="2.0986495"></rect>
                <rect id="Rectangle-path" fill="#000000" transform="translate(24.870804, 26.793818) rotate(198.053494) translate(-24.870804, -26.793818) " x="23.9089241" y="25.7444935" width="1.9237608" height="2.0986495"></rect>
                <rect id="Rectangle-path" fill="#000000" transform="translate(24.839342, 22.447593) rotate(198.053494) translate(-24.839342, -22.447593) " x="23.8774613" y="21.3982678" width="1.9237608" height="2.0986495"></rect>
                <rect id="Rectangle-path" fill="#000000" transform="translate(23.428288, 24.769514) rotate(198.053494) translate(-23.428288, -24.769514) " x="22.4664071" y="23.7201891" width="1.9237608" height="2.0986495"></rect>
                <rect id="Rectangle-path" fill="#000000" transform="translate(22.192203, 26.690553) rotate(198.053494) translate(-22.192203, -26.690553) " x="21.2303225" y="25.641228" width="1.9237608" height="2.0986495"></rect>
                <rect id="Rectangle-path" fill="#000000" transform="translate(12.763362, 26.438060) rotate(-18.053494) translate(-12.763362, -26.438060) " x="11.8014815" y="25.388735" width="1.9237608" height="2.0986495"></rect>
                <rect id="Rectangle-path" fill="#000000" transform="translate(12.550128, 21.621627) rotate(-18.053494) translate(-12.550128, -21.621627) " x="11.5882479" y="20.5723026" width="1.9237608" height="2.0986495"></rect>
                <rect id="Rectangle-path" fill="#000000" transform="translate(7.740324, 22.079007) rotate(-18.053494) translate(-7.740324, -22.079007) " x="6.77844375" y="21.0296819" width="1.9237608" height="2.0986495"></rect>
                <rect id="Rectangle-path" fill="#000000" transform="translate(10.376997, 24.479817) rotate(-18.053494) translate(-10.376997, -24.479817) " x="9.41511612" y="23.4304921" width="1.9237608" height="2.0986495"></rect>
                <rect id="Rectangle-path" fill="#000000" transform="translate(15.664367, 25.208721) rotate(-18.053494) translate(-15.664367, -25.208721) " x="14.702487" y="24.1593962" width="1.9237608" height="2.0986495"></rect>
                <rect id="Rectangle-path" fill="#000000" transform="translate(11.792794, 22.787697) rotate(-18.053494) translate(-11.792794, -22.787697) " x="10.8309133" y="21.7383727" width="1.9237608" height="2.0986495"></rect>
                <rect id="Rectangle-path" fill="#000000" transform="translate(15.095722, 21.847012) rotate(-18.053494) translate(-15.095722, -21.847012) " x="14.1338414" y="20.7976871" width="1.9237608" height="2.0986495"></rect>
                <rect id="Rectangle-path" fill="#000000" transform="translate(15.116979, 30.040626) rotate(-18.053494) translate(-15.116979, -30.040626) " x="14.1550983" y="28.9913009" width="1.9237608" height="2.0986495"></rect>
                <rect id="Rectangle-path" fill="#000000" transform="translate(16.423741, 27.443270) rotate(-18.053494) translate(-16.423741, -27.443270) " x="15.4618602" y="26.393945" width="1.9237608" height="2.0986495"></rect>
                <rect id="Rectangle-path" fill="#000000" transform="translate(18.359430, 23.979048) rotate(-18.053494) translate(-18.359430, -23.979048) " x="17.39755" y="22.9297235" width="1.9237608" height="2.0986495"></rect>
                <rect id="Rectangle-path" fill="#000000" transform="translate(19.420648, 25.550340) rotate(-18.053494) translate(-19.420648, -25.550340) " x="18.4587672" y="24.5010156" width="1.9237608" height="2.0986495"></rect>
                <rect id="Rectangle-path" fill="#000000" transform="translate(28.447401, 18.965904) rotate(2.815372) translate(-28.447401, -18.965904) " x="27.4855208" y="17.9165796" width="1.92376081" height="2.09864951"></rect>
                <rect id="Rectangle-path" fill="#000000" transform="translate(34.105720, 19.490539) rotate(177.184628) translate(-34.105720, -19.490539) " x="33.14384" y="18.4412144" width="1.92376081" height="2.09864951"></rect>
                <rect id="Rectangle-path" fill="#000000" transform="translate(36.746898, 12.097291) rotate(198.053494) translate(-36.746898, -12.097291) " x="35.7850172" y="11.0479664" width="1.9237608" height="2.0986495"></rect>
                <rect id="Rectangle-path" fill="#000000" transform="translate(28.652934, 2.558842) rotate(198.053494) translate(-28.652934, -2.558842) " x="27.6910531" y="1.50951713" width="1.9237608" height="2.0986495"></rect>
                <rect id="Rectangle-path" fill="#000000" transform="translate(38.483401, 3.016177) rotate(198.053494) translate(-38.483401, -3.016177) " x="37.5215205" y="1.96685194" width="1.9237608" height="2.0986495"></rect>
                <rect id="Rectangle-path" fill="#000000" transform="translate(39.284375, 8.110225) rotate(198.053494) translate(-39.284375, -8.110225) " x="38.3224944" y="7.06089988" width="1.9237608" height="2.0986495"></rect>
                <rect id="Rectangle-path" fill="#000000" transform="translate(28.501377, 11.887853) rotate(198.053494) translate(-28.501377, -11.887853) " x="27.5394961" y="10.8385286" width="1.9237608" height="2.0986495"></rect>
                <rect id="Rectangle-path" fill="#000000" transform="translate(31.309958, 19.087618) rotate(198.053494) translate(-31.309958, -19.087618) " x="30.3480776" y="18.0382933" width="1.9237608" height="2.0986495"></rect>
                <rect id="Rectangle-path" fill="#000000" transform="translate(32.682006, 5.124010) rotate(198.053494) translate(-32.682006, -5.124010) " x="31.7201261" y="4.07468564" width="1.9237608" height="2.0986495"></rect>
                <rect id="Rectangle-path" fill="#000000" transform="translate(33.627478, 10.880218) rotate(198.053494) translate(-33.627478, -10.880218) " x="32.6655973" y="9.83089373" width="1.9237608" height="2.0986495"></rect>
                <rect id="Rectangle-path" fill="#000000" transform="translate(30.407187, 16.384483) rotate(198.053494) translate(-30.407187, -16.384483) " x="29.4453066" y="15.3351584" width="1.9237608" height="2.0986495"></rect>
                <rect id="Rectangle-path" fill="#000000" transform="translate(35.097710, 15.762108) rotate(198.053494) translate(-35.097710, -15.762108) " x="34.1358295" y="14.7127829" width="1.9237608" height="2.0986495"></rect>
                <rect id="Rectangle-path" fill="#000000" transform="translate(23.193411, 4.391653) rotate(198.053494) translate(-23.193411, -4.391653) " x="22.2315306" y="3.34232857" width="1.9237608" height="2.0986495"></rect>
                <rect id="Rectangle-path" fill="#000000" transform="translate(28.777943, 6.837270) rotate(198.053494) translate(-28.777943, -6.837270) " x="27.8160622" y="5.78794536" width="1.9237608" height="2.0986495"></rect>
                <rect id="Rectangle-path" fill="#000000" transform="translate(6.411596, 15.643035) rotate(2.815372) translate(-6.411596, -15.643035) " x="5.44971526" y="14.5937099" width="1.92376081" height="2.09864951"></rect>
                <rect id="Rectangle-path" fill="#000000" transform="translate(8.346097, 20.714721) rotate(177.184628) translate(-8.346097, -20.714721) " x="7.38421695" y="19.6653964" width="1.92376081" height="2.09864951"></rect>
                <rect id="Rectangle-path" fill="#000000" transform="translate(4.042942, 3.352964) rotate(198.053494) translate(-4.042942, -3.352964) " x="3.08106175" y="2.30363897" width="1.9237608" height="2.0986495"></rect>
                <rect id="Rectangle-path" fill="#000000" transform="translate(16.061086, 6.406413) rotate(198.053494) translate(-16.061086, -6.406413) " x="15.0992054" y="5.35708814" width="1.9237608" height="2.0986495"></rect>
                <rect id="Rectangle-path" fill="#000000" transform="translate(7.003687, 18.231467) rotate(198.053494) translate(-7.003687, -18.231467) " x="6.04180651" y="17.1821426" width="1.9237608" height="2.0986495"></rect>
                <rect id="Rectangle-path" fill="#000000" transform="translate(10.602865, 18.953329) rotate(198.053494) translate(-10.602865, -18.953329) " x="9.64098436" y="17.9040041" width="1.9237608" height="2.0986495"></rect>
                <rect id="Rectangle-path" fill="#000000" transform="translate(11.107944, 15.513671) rotate(208.439850) translate(-11.107944, -15.513671) " x="10.1460633" y="14.464346" width="1.9237608" height="2.0986493"></rect>
                <rect id="Rectangle-path" fill="#000000" transform="translate(6.301136, 12.092171) rotate(198.053494) translate(-6.301136, -12.092171) " x="5.33925567" y="11.0428464" width="1.9237608" height="2.0986495"></rect>
                <rect id="Rectangle-path" fill="#000000" transform="translate(2.601415, 12.644229) rotate(198.053494) translate(-2.601415, -12.644229) " x="1.63953414" y="11.594904" width="1.9237608" height="2.0986495"></rect>
                <rect id="Rectangle-path" fill="#000000" transform="translate(12.116333, 11.404924) rotate(198.053494) translate(-12.116333, -11.404924) " x="11.1544531" y="10.3555992" width="1.9237608" height="2.0986495"></rect>
                <rect id="Rectangle-path" fill="#000000" transform="translate(11.169570, 1.868906) rotate(198.053494) translate(-11.169570, -1.868906) " x="10.2076894" y="0.819581417" width="1.9237608" height="2.0986495"></rect>
                <rect id="Rectangle-path" fill="#000000" transform="translate(1.803204, 7.516033) rotate(198.497650) translate(-1.803204, -7.516033) " x="0.841323718" y="6.46670851" width="1.92376081" height="2.09864951"></rect>
                <rect id="Rectangle-path" fill="#000000" transform="translate(9.727045, 7.539603) rotate(198.053494) translate(-9.727045, -7.539603) " x="8.76516425" y="6.49027801" width="1.9237608" height="2.0986495"></rect>
                <path d="M12.5581,31.59016 L12.2456,32.05891 C8.02855,38.56861 7.52594,44.3346 9.33935,49.30891 C11.07583,54.07219 14.86156,58.03465 19.1831,61.62141 C14.14059,66.15242 11.00052,70.37101 9.4956,74.34016 C7.93957,78.44411 8.0859,82.29343 9.40185,85.77766 L9.65185,86.43391 C9.65995,86.42971 11.700321,86.47386 11.700321,86.47386 C10.253655,83.21649 10.108077,78.388747 11.3706,75.058914 C12.72799,71.478884 15.66327,67.472574 20.58935,63.058914 C24.13958,66.229474 27.7119,69.256134 29.8081,72.621414 C31.89816,75.976824 32.15976,80.479154 30.15185,85.308914 L30.1206,85.308914 L29.77685,86.433914 L31.27685,86.433914 L31.9331,86.433914 L32.1831,85.840164 C34.75285,80.18941 33.92958,75.46646 31.4956,71.55891 C29.12359,67.75086 25.34299,64.61913 21.77685,61.43391 C29.60553,55.36194 33.17644,50.10508 33.71435,45.24641 C33.68025,39.70272 30.8758,35.04288 27.9331,31.59016 L27.46435,31.59016 L13.08935,31.59016 L12.5581,31.59016 Z M26.58935,32.99641 C29.69146,36.64608 32.16999,40.91207 31.71435,45.02766 C31.25817,49.14813 28.12912,54.02494 20.3706,59.99641 C16.22376,56.53681 12.74213,52.81221 11.21435,48.62141 C9.64918,44.32803 9.81534,39.09112 13.4956,33.18391 L26.58935,32.99641 Z" id="Shape" fill="#000000"></path>
            </g>
        </g>
    </g>
</svg>