<?xml version="1.0" encoding="UTF-8" standalone="no"?>
<svg width="95px" height="92px" viewBox="0 0 95 92" version="1.1" xmlns="http://www.w3.org/2000/svg" xmlns:xlink="http://www.w3.org/1999/xlink">
    <!-- Generator: Sketch 3.8.3 (29802) - http://www.bohemiancoding.com/sketch -->
    <title>noun_55633_cc</title>
    <desc>Created with Sketch.</desc>
    <defs>
        <filter x="-50%" y="-50%" width="200%" height="200%" filterUnits="objectBoundingBox" id="filter-1">
            <feOffset dx="2" dy="2" in="SourceAlpha" result="shadowOffsetOuter1"></feOffset>
            <feGaussianBlur stdDeviation="1" in="shadowOffsetOuter1" result="shadowBlurOuter1"></feGaussianBlur>
            <feColorMatrix values="0 0 0 0 0   0 0 0 0 0   0 0 0 0 0  0 0 0 0.5 0" type="matrix" in="shadowBlurOuter1" result="shadowMatrixOuter1"></feColorMatrix>
            <feMerge>
                <feMergeNode in="shadowMatrixOuter1"></feMergeNode>
                <feMergeNode in="SourceGraphic"></feMergeNode>
            </feMerge>
        </filter>
    </defs>
    <g id="Page-1" stroke="none" stroke-width="1" fill="none" fill-rule="evenodd">
        <g id="noun_55633_cc" filter="url(#filter-1)" fill="#fff">
            <path d="M87.231,18.886 C85.808,18.886 84.63,19.901 84.367,21.243 L80.294,21.106 C79.961,19.338 78.411,17.999 76.548,17.999 C76.31,17.999 76.078,18.027 75.852,18.069 L74.282,13.358 C74.804,12.963 75.145,12.343 75.145,11.638 C75.145,10.445 74.183,9.472 72.987,9.472 C71.793,9.472 70.821,10.445 70.821,11.638 C70.821,12.829 71.793,13.799 72.987,13.799 C73.1,13.799 73.21,13.782 73.318,13.766 L74.866,18.406 C73.608,19.03 72.734,20.313 72.734,21.812 C72.734,23.085 73.365,24.206 74.324,24.899 L69.755,31.331 C69.268,31.104 68.729,30.969 68.155,30.969 C66.204,30.969 64.611,32.448 64.388,34.345 L55.684,33.472 C55.661,31.104 53.734,29.186 51.36,29.186 C51.069,29.186 50.786,29.217 50.511,29.272 L48.063,20.698 C49.567,19.879 50.597,18.304 50.597,16.469 C50.597,15.84 50.468,15.242 50.249,14.69 L52.758,13.437 C53.5,14.206 54.536,14.688 55.688,14.688 C57.937,14.688 59.765,12.87 59.765,10.618 C59.765,10.356 59.735,10.102 59.688,9.854 L65.152,7.578 C65.548,8.108 66.173,8.456 66.885,8.456 C68.08,8.456 69.041,7.485 69.041,6.29 C69.041,5.097 68.08,4.13 66.885,4.13 C65.689,4.13 64.717,5.096 64.717,6.29 C64.717,6.401 64.734,6.508 64.75,6.615 L59.353,8.864 C58.695,7.496 57.306,6.546 55.688,6.546 C55.084,6.546 54.516,6.686 54,6.922 L52.53,4.33 C53.052,3.935 53.394,3.314 53.394,2.606 C53.394,1.413 52.431,0.445 51.239,0.445 C50.042,0.445 49.071,1.413 49.071,2.606 C49.071,3.803 50.042,4.769 51.239,4.769 C51.347,4.769 51.452,4.752 51.556,4.737 L53.118,7.484 C52.207,8.231 51.613,9.35 51.613,10.619 C51.613,11.333 51.813,11.994 52.136,12.577 L49.765,13.761 C48.896,12.481 47.429,11.639 45.763,11.639 C43.099,11.639 40.931,13.804 40.931,16.47 C40.931,19.142 43.099,21.305 45.763,21.305 C46.226,21.305 46.665,21.22 47.089,21.098 L49.521,29.613 C48.058,30.307 47.038,31.788 47.038,33.515 C47.038,34.727 47.541,35.82 48.345,36.606 L44.459,41.585 C43.644,40.996 42.652,40.64 41.572,40.64 C39.171,40.64 37.167,42.346 36.707,44.609 L29.968,43.457 C29.973,43.364 29.996,43.277 29.996,43.183 C29.996,40.513 27.826,38.346 25.163,38.346 C24.31,38.346 23.521,38.585 22.826,38.972 L17.527,30.263 C18.601,29.53 19.308,28.297 19.308,26.896 C19.308,26.729 19.278,26.569 19.259,26.407 L21.605,25.84 C22.017,26.69 22.881,27.281 23.888,27.281 C25.289,27.281 26.431,26.141 26.431,24.737 C26.431,23.333 25.289,22.193 23.888,22.193 C22.484,22.193 21.343,23.333 21.343,24.737 C21.343,24.767 21.351,24.795 21.352,24.824 L19.012,25.388 C18.722,24.665 18.232,24.051 17.609,23.602 L19.66,18.712 C20.013,18.897 20.408,19.011 20.833,19.011 C22.241,19.011 23.382,17.874 23.382,16.468 C23.382,15.066 22.241,13.927 20.833,13.927 C19.431,13.927 18.291,15.065 18.291,16.468 C18.291,17.051 18.495,17.581 18.824,18.009 L16.686,23.106 C16.235,22.934 15.751,22.83 15.24,22.83 C13.08,22.83 11.331,24.512 11.196,26.637 L5.826,25.59 C5.806,24.201 4.678,23.083 3.284,23.083 C1.879,23.083 0.74,24.221 0.74,25.627 C0.74,27.034 1.879,28.171 3.284,28.171 C4.338,28.171 5.243,27.531 5.629,26.618 L11.252,27.715 C11.631,29.572 13.272,30.968 15.239,30.968 C15.713,30.968 16.16,30.871 16.583,30.722 L21.969,39.575 C20.969,40.461 20.326,41.741 20.326,43.182 C20.326,44.517 20.868,45.725 21.745,46.6 L20.131,49.019 C19.21,48.385 18.094,48.013 16.89,48.013 C13.733,48.013 11.169,50.576 11.169,53.743 C11.169,56.901 13.733,59.458 16.89,59.458 C17.752,59.458 18.567,59.263 19.3,58.923 L22.047,63.966 C20.24,65.204 19.053,67.282 19.053,69.642 C19.053,71.549 19.835,73.277 21.095,74.523 L16.55,79.239 C15.897,78.653 15.042,78.287 14.095,78.287 C12.058,78.287 10.407,79.935 10.407,81.971 C10.407,84.008 12.058,85.662 14.095,85.662 C16.133,85.662 17.784,84.008 17.784,81.971 C17.784,81.263 17.575,80.609 17.228,80.047 L21.897,75.197 C23.03,76.02 24.419,76.511 25.925,76.511 C29.096,76.511 31.761,74.35 32.549,71.427 L38.401,72.219 C38.552,75.313 41.106,77.779 44.235,77.779 C45.583,77.779 46.819,77.32 47.807,76.556 L50.385,80.955 C49.588,81.63 49.071,82.623 49.071,83.751 C49.071,85.788 50.727,87.444 52.761,87.444 C54.8,87.444 56.451,85.788 56.451,83.751 C56.451,81.712 54.8,80.069 52.761,80.069 C52.227,80.069 51.722,80.187 51.264,80.391 L48.589,75.828 C49.518,74.793 50.087,73.43 50.087,71.931 C50.087,70.192 49.324,68.634 48.12,67.562 L49.948,64.636 C50.62,64.906 51.352,65.058 52.12,65.058 C54.765,65.058 57.002,63.301 57.729,60.894 L65.544,59.777 C66.19,60.66 67.227,61.24 68.407,61.24 C69.183,61.24 69.895,60.986 70.48,60.565 L73.803,63.356 C73.612,63.713 73.493,64.115 73.493,64.548 C73.493,65.956 74.631,67.097 76.037,67.097 C77.435,67.097 78.58,65.956 78.58,64.548 C78.58,63.144 77.435,62.003 76.037,62.003 C75.445,62.003 74.908,62.213 74.476,62.552 L71.23,59.826 C71.686,59.227 71.967,58.488 71.967,57.677 C71.967,56.288 71.164,55.095 70.003,54.507 L70.631,52.305 C70.736,52.317 70.84,52.337 70.949,52.337 C72.635,52.337 74.001,50.973 74.001,49.286 C74.001,47.77 72.894,46.519 71.444,46.281 L70.076,38.062 C71.202,37.399 71.967,36.188 71.967,34.789 C71.967,33.63 71.44,32.604 70.625,31.903 L75.255,25.388 C75.659,25.534 76.09,25.627 76.544,25.627 C77.284,25.627 77.969,25.407 78.555,25.042 L80.117,26.553 C79.874,26.903 79.728,27.327 79.728,27.787 C79.728,28.985 80.692,29.952 81.887,29.952 C83.081,29.952 84.055,28.986 84.055,27.787 C84.055,26.592 83.081,25.627 81.887,25.627 C81.535,25.627 81.209,25.718 80.916,25.866 L79.362,24.364 C79.902,23.768 80.249,23.004 80.326,22.156 L84.353,22.291 C84.582,23.677 85.774,24.735 87.227,24.735 C88.84,24.735 90.157,23.426 90.157,21.811 C90.161,20.198 88.845,18.886 87.231,18.886 L87.231,18.886 Z M47.282,66.94 C46.393,66.396 45.353,66.078 44.235,66.078 C41.266,66.078 38.815,68.299 38.441,71.172 L32.748,70.402 C32.776,70.152 32.792,69.899 32.792,69.642 C32.792,65.841 29.715,62.765 25.925,62.765 C24.862,62.765 23.858,63.014 22.959,63.446 L20.207,58.398 C21.664,57.363 22.616,55.667 22.616,53.744 C22.616,52.16 21.975,50.727 20.939,49.69 L22.568,47.248 C23.318,47.727 24.205,48.014 25.162,48.014 C27.37,48.014 29.218,46.518 29.793,44.49 L36.612,45.656 C36.643,48.367 38.849,50.555 41.571,50.555 C42.309,50.555 43.003,50.382 43.633,50.092 L47.952,55.102 C46.913,56.158 46.27,57.605 46.27,59.204 C46.27,61.294 47.371,63.126 49.02,64.162 L47.282,66.94 L47.282,66.94 Z M70.389,46.289 C68.974,46.555 67.901,47.795 67.901,49.287 C67.901,50.496 68.61,51.53 69.63,52.024 L69.016,54.174 C68.819,54.14 68.619,54.112 68.411,54.112 C66.442,54.112 64.852,55.712 64.852,57.676 C64.852,58.069 64.93,58.439 65.047,58.791 L57.951,59.806 C57.972,59.607 57.982,59.406 57.982,59.202 C57.982,55.97 55.355,53.352 52.122,53.352 C50.867,53.352 49.707,53.75 48.755,54.423 L44.544,49.54 C45.741,48.635 46.528,47.214 46.528,45.597 C46.528,44.318 46.03,43.164 45.235,42.284 L49.187,37.23 C49.828,37.607 50.565,37.839 51.361,37.839 C53.406,37.839 55.111,36.413 55.563,34.506 L64.406,35.392 C64.698,37.207 66.26,38.599 68.156,38.599 C68.479,38.599 68.789,38.547 69.089,38.471 L70.389,46.289 L70.389,46.289 Z" id="Shape"></path>
        </g>
    </g>
</svg>
