<?xml version="1.0" encoding="UTF-8" standalone="no"?>
<svg width="84px" height="90px" viewBox="0 0 84 90" version="1.1" xmlns="http://www.w3.org/2000/svg" xmlns:xlink="http://www.w3.org/1999/xlink">
    <!-- Generator: Sketch 3.8.3 (29802) - http://www.bohemiancoding.com/sketch -->
    <title>noun_316143_cc</title>
    <desc>Created with Sketch.</desc>
    <defs></defs>
    <g id="Page-1" stroke="none" stroke-width="1" fill="none" fill-rule="evenodd">
        <g id="noun_316143_cc" fill="#000000">
            <g id="Group">
                <path d="M73.5,39.6 C73.7,39.6 74,39.6 74.2,39.5 C73.4,40.8 73.6,42.6 74.7,43.7 L74.8,43.8 C74.2,43.9 73.7,44.2 73.2,44.7 C71.9,46 71.9,48.2 73.2,49.6 L73.3,49.7 C72.7,49.8 72.2,50.1 71.7,50.6 C70.4,51.9 70.4,54.1 71.7,55.5 C72.4,56.2 73.3,56.5 74.1,56.5 L74.2,56.5 C73.3,57.8 73.4,59.7 74.6,60.9 C74.8,61.1 75,61.3 75.3,61.4 C75.1,61.5 74.8,61.7 74.6,61.9 C73.3,63.2 73.3,65.4 74.6,66.8 C75.3,67.5 76.2,67.8 77,67.8 C77.8,67.8 78.8,67.5 79.4,66.8 C80.7,65.5 80.7,63.3 79.4,61.9 C79.2,61.7 79,61.5 78.7,61.4 C78.9,61.3 79.2,61.1 79.4,60.9 C80.7,59.6 80.7,57.4 79.4,56 C78.7,55.3 77.8,55 77,55 L76.9,55 C77.8,53.7 77.7,51.8 76.5,50.6 L76.4,50.5 C77,50.4 77.5,50.1 78,49.6 C79.3,48.3 79.3,46.1 78,44.7 L77.9,44.6 C78.5,44.5 79,44.2 79.5,43.7 C80.8,42.4 80.8,40.2 79.5,38.8 C78.8,38.1 77.9,37.8 77.1,37.8 C76.9,37.8 76.6,37.8 76.4,37.9 C77.2,36.6 77,34.8 75.9,33.7 L75.8,33.6 C76.4,33.5 76.9,33.2 77.4,32.7 C78.7,31.4 78.7,29.2 77.4,27.8 C76.7,27.1 75.8,26.8 75,26.8 C74.2,26.8 73.2,27.1 72.6,27.8 C71.3,29.1 71.3,31.3 72.6,32.7 L72.7,32.8 C72,33 71.5,33.3 71,33.8 C69.7,35.1 69.7,37.3 71,38.7 C71.7,39.3 72.6,39.6 73.5,39.6 L73.5,39.6 Z M78.9,62.6 C79.4,63.1 79.6,63.7 79.6,64.3 C79.6,64.9 79.3,65.6 78.9,66 C78.4,66.5 77.8,66.7 77.2,66.7 C76.6,66.7 75.9,66.4 75.5,66 C75,65.5 74.8,64.9 74.8,64.3 C74.8,63.7 75.1,63 75.5,62.6 C75.9,62.2 76.5,61.9 77.2,61.9 L77.3,61.9 L77.4,61.9 C77.8,61.9 78.4,62.1 78.9,62.6 L78.9,62.6 Z M78.9,56.7 C79.4,57.2 79.6,57.8 79.6,58.4 C79.6,59.1 79.3,59.7 78.9,60.1 C78.5,60.5 77.9,60.8 77.2,60.8 C77.2,60.8 77.2,60.8 77.1,60.8 C77,60.8 77.1,60.8 77,60.8 C76.4,60.8 75.8,60.5 75.3,60.1 C74.8,59.6 74.6,59 74.6,58.4 C74.6,57.7 74.9,57.1 75.3,56.7 C75.8,56.2 76.4,56 77,56 C77.6,56 78.4,56.3 78.9,56.7 L78.9,56.7 Z M75.9,54.8 C75.4,55.3 74.8,55.5 74.2,55.5 C73.5,55.5 72.9,55.2 72.5,54.8 C71.5,53.8 71.5,52.3 72.5,51.4 C73,50.9 73.6,50.7 74.2,50.7 C74.9,50.7 75.5,51 75.9,51.4 C76.9,52.3 76.9,53.8 75.9,54.8 L75.9,54.8 Z M78.1,47.2 C78.1,47.9 77.8,48.5 77.4,48.9 C76.9,49.4 76.3,49.6 75.7,49.6 C75.1,49.6 74.4,49.3 74,48.9 C73,47.9 73,46.4 74,45.5 C74.5,45 75.1,44.8 75.7,44.8 C76.3,44.8 77,45.1 77.4,45.5 C77.8,45.9 78.1,46.5 78.1,47.2 L78.1,47.2 Z M78.9,39.6 C79.4,40.1 79.6,40.7 79.6,41.3 C79.6,42 79.3,42.6 78.9,43 C78.4,43.5 77.8,43.7 77.2,43.7 C76.6,43.7 75.9,43.4 75.5,43 C75,42.5 74.8,41.9 74.8,41.3 C74.8,40.6 75.1,40 75.5,39.6 C76,39.1 76.6,38.9 77.2,38.9 C77.8,38.9 78.4,39.1 78.9,39.6 L78.9,39.6 Z M73.2,28.6 C73.7,28.1 74.3,27.9 74.9,27.9 C75.5,27.9 76.2,28.2 76.6,28.6 C77.1,29.1 77.3,29.7 77.3,30.3 C77.3,30.9 77,31.6 76.6,32 C76.1,32.5 75.5,32.7 74.9,32.7 C74.3,32.7 73.6,32.4 73.2,32 C72.3,31.1 72.3,29.5 73.2,28.6 L73.2,28.6 Z M71.7,34.5 C72.2,34 72.8,33.8 73.4,33.8 C74,33.8 74.7,34.1 75.1,34.5 C76.1,35.5 76.1,37 75.1,37.9 C74.6,38.4 74,38.6 73.4,38.6 C72.8,38.6 72.1,38.3 71.7,37.9 C70.8,37 70.8,35.4 71.7,34.5 L71.7,34.5 Z" id="Shape"></path>
                <path d="M6.7,6 C6.8,7.1 7.5,8.2 8.6,8.7 C9.1,8.9 9.6,9.1 10.1,9.1 C11.4,9.1 12.6,8.4 13.2,7.2 C13.2,7.1 13.2,7.1 13.3,7 C13.6,7.5 14.1,7.9 14.7,8.2 C15.2,8.4 15.7,8.6 16.2,8.6 C16.5,8.6 16.8,8.6 17.1,8.5 C16.7,10 17.4,11.6 18.9,12.4 C19.4,12.6 19.9,12.8 20.4,12.8 C21,12.8 21.5,12.7 22,12.4 C22,12.4 22,12.4 22,12.5 C21,14 21.7,16.1 23.4,17 C23.9,17.2 24.4,17.4 24.9,17.4 L25.2,17.4 L25.1,17.5 C24.2,19.2 24.9,21.3 26.6,22.1 L26.7,22.1 C25.6,22.3 24.7,22.9 24.2,24 C23.3,25.7 24,27.8 25.7,28.6 C26.2,28.8 26.7,29 27.2,29 C28.5,29 29.7,28.3 30.3,27.1 C31.2,25.4 30.5,23.3 28.8,22.5 C28.8,22.5 28.8,22.5 28.7,22.5 C29.5,22.4 30.2,22 30.8,21.3 C30.9,22.4 31.6,23.5 32.7,24 C33.2,24.2 33.7,24.4 34.2,24.4 L34.5,24.4 L34.4,24.5 C33.5,26.2 34.2,28.3 35.9,29.1 C36.4,29.3 36.9,29.5 37.4,29.5 C38.4,29.5 39.4,29.1 40,28.3 C40.1,29.4 40.8,30.5 41.9,31 C42.4,31.2 42.9,31.4 43.4,31.4 L43.7,31.4 L43.6,31.5 C42.7,33.2 43.4,35.3 45.1,36.1 C45.6,36.3 46.1,36.5 46.6,36.5 C47.6,36.5 48.6,36.1 49.2,35.3 C49.3,36.4 50,37.5 51.1,38 C51.6,38.2 52.1,38.4 52.6,38.4 C53.9,38.4 55.1,37.7 55.7,36.5 C56.6,34.8 55.9,32.7 54.2,31.9 C53.7,31.7 53.2,31.5 52.7,31.5 C51.7,31.5 50.7,31.9 50.1,32.7 C50,31.6 49.3,30.5 48.2,30 C47.7,29.8 47.2,29.6 46.7,29.6 L46.4,29.6 L46.5,29.5 C47.4,27.8 46.7,25.7 45,24.9 C44.5,24.7 44,24.5 43.5,24.5 C42.5,24.5 41.5,24.9 40.9,25.7 C40.8,24.6 40.1,23.5 39,23 C38.5,22.8 38,22.6 37.5,22.6 L37.2,22.6 L37.3,22.5 C38.2,20.8 37.5,18.7 35.8,17.9 C35.3,17.7 34.8,17.5 34.3,17.5 C33.3,17.5 32.3,17.9 31.7,18.7 C31.6,17.6 30.9,16.5 29.8,16 C29.3,15.8 28.8,15.6 28.3,15.6 L28,15.6 L28.1,15.5 C29,13.8 28.3,11.7 26.6,10.9 C26.1,10.7 25.6,10.5 25.1,10.5 C24.5,10.5 24,10.6 23.5,10.9 C23.5,10.9 23.5,10.9 23.5,10.8 C24.4,9.1 23.7,7 22,6.2 C21.5,6 21,5.8 20.5,5.8 C20.2,5.8 19.9,5.8 19.6,5.9 C20,4.4 19.3,2.8 17.8,2 C17.3,1.8 16.8,1.6 16.3,1.6 C15,1.6 13.8,2.3 13.2,3.5 C13.2,3.6 13.2,3.6 13.1,3.7 C12.8,3.2 12.3,2.8 11.7,2.5 C11.2,2.3 10.7,2.1 10.2,2.1 C9.2,2.1 8.2,2.5 7.6,3.3 C7.5,2.2 6.8,1.1 5.7,0.6 C5.2,0.4 4.7,0.2 4.2,0.2 C2.8,0.3 1.6,1 1,2.2 C0.1,3.9 0.8,6 2.5,6.8 C3,7 3.5,7.2 4,7.2 C5,7.2 6,6.8 6.7,6 L6.7,6 Z M50.6,33.7 C51,32.9 51.9,32.4 52.8,32.4 C53.2,32.4 53.5,32.5 53.9,32.7 C54.5,33 54.9,33.5 55.1,34.1 C55.3,34.7 55.3,35.4 55,36 C54.6,36.8 53.7,37.3 52.8,37.3 C52.4,37.3 52.1,37.2 51.7,37 C51.1,36.7 50.7,36.2 50.5,35.6 C50.2,34.9 50.3,34.3 50.6,33.7 L50.6,33.7 Z M46.7,30.5 C47.1,30.5 47.4,30.6 47.8,30.8 C49,31.4 49.5,32.9 48.9,34.1 C48.5,34.9 47.6,35.4 46.7,35.4 C46.3,35.4 46,35.3 45.6,35.1 C44.4,34.5 43.9,33 44.5,31.8 C45,31 45.8,30.5 46.7,30.5 L46.7,30.5 Z M41.3,26.7 C41.7,25.9 42.6,25.4 43.5,25.4 C43.9,25.4 44.2,25.5 44.6,25.7 C45.2,26 45.6,26.5 45.8,27.1 C46,27.7 46,28.4 45.7,29 C45.3,29.8 44.4,30.3 43.5,30.3 C43.1,30.3 42.8,30.2 42.4,30 C41.2,29.4 40.7,27.9 41.3,26.7 L41.3,26.7 Z M37.5,23.5 C37.9,23.5 38.2,23.6 38.6,23.8 C39.2,24.1 39.6,24.6 39.8,25.2 C40,25.8 40,26.5 39.7,27.1 C39.3,27.9 38.4,28.4 37.5,28.4 C37.1,28.4 36.8,28.3 36.4,28.1 C35.8,27.8 35.4,27.3 35.2,26.7 C35,26.1 35,25.4 35.3,24.8 C35.7,24 36.5,23.5 37.5,23.5 L37.5,23.5 Z M32.1,19.8 C32.5,19 33.4,18.5 34.3,18.5 C34.7,18.5 35,18.6 35.4,18.8 C36,19.1 36.4,19.6 36.6,20.2 C36.8,20.8 36.8,21.5 36.5,22.1 C36.1,22.9 35.2,23.4 34.3,23.4 C33.9,23.4 33.6,23.3 33.2,23.1 C32.6,22.8 32.2,22.3 32,21.7 C31.8,21.1 31.8,20.3 32.1,19.8 L32.1,19.8 Z M29.5,26.6 C29.1,27.4 28.2,27.9 27.3,27.9 C26.9,27.9 26.6,27.8 26.2,27.6 C25,27 24.5,25.5 25.1,24.3 C25.5,23.5 26.4,23 27.3,23 C27.7,23 28,23.1 28.4,23.3 C29.6,23.9 30.1,25.4 29.5,26.6 L29.5,26.6 Z M28.2,16.6 C28.6,16.6 28.9,16.7 29.3,16.9 C30.5,17.5 31,19 30.4,20.2 C30,21 29.1,21.5 28.2,21.5 C27.8,21.5 27.5,21.4 27.1,21.2 C25.9,20.6 25.4,19.1 26,17.9 C26.4,17.1 27.3,16.6 28.2,16.6 L28.2,16.6 Z M25,11.5 C25.4,11.5 25.7,11.6 26.1,11.8 C27.3,12.4 27.8,13.9 27.2,15.1 C26.8,15.9 25.9,16.4 25,16.4 C24.6,16.4 24.3,16.3 23.9,16.1 C23.3,15.8 22.9,15.3 22.7,14.7 C22.5,14.1 22.5,13.4 22.8,12.8 C23.2,12 24,11.5 25,11.5 L25,11.5 Z M20.3,6.8 C20.7,6.8 21,6.9 21.4,7.1 C22.6,7.7 23.1,9.2 22.5,10.4 C22.1,11.2 21.2,11.7 20.3,11.7 C19.9,11.7 19.6,11.6 19.2,11.4 C18.6,11.1 18.2,10.6 18,10 C17.8,9.4 17.8,8.7 18.1,8.1 C18.6,7.3 19.4,6.8 20.3,6.8 L20.3,6.8 Z M13.9,4.1 C14.3,3.3 15.2,2.8 16.1,2.8 C16.5,2.8 16.8,2.9 17.2,3.1 C18.4,3.7 18.9,5.2 18.3,6.4 C17.9,7.2 17,7.7 16.1,7.7 C15.7,7.7 15.4,7.6 15,7.4 C13.8,6.7 13.3,5.3 13.9,4.1 L13.9,4.1 Z M7.9,4.5 C8.3,3.7 9.2,3.2 10.1,3.2 C10.5,3.2 10.8,3.3 11.2,3.5 C11.8,3.8 12.2,4.3 12.4,4.9 C12.6,5.5 12.6,6.2 12.3,6.8 C11.8,7.5 11,8 10.1,8 C9.7,8 9.4,7.9 9,7.7 C7.8,7.2 7.3,5.7 7.9,4.5 L7.9,4.5 Z M6.2,4.8 C5.8,5.6 4.9,6.1 4,6.1 C3.6,6.1 3.3,6 2.9,5.8 C1.7,5.3 1.3,3.9 1.9,2.7 C2.3,1.9 3.2,1.4 4.1,1.4 C4.5,1.4 4.8,1.5 5.2,1.7 C6.3,2.2 6.8,3.6 6.2,4.8 L6.2,4.8 Z" id="Shape"></path>
                <path d="M23.6,50.1 C22.9,49.4 22,49.1 21.2,49.1 C20.4,49.1 19.6,49.4 18.9,50 C18.7,49.5 18.5,49.1 18.1,48.7 C17.7,48.3 17.3,48.1 16.8,47.9 C17.8,46.8 18,45.1 17.2,43.8 C17.7,44 18.2,44.1 18.7,44.1 C20,44.1 21.2,43.4 21.8,42.2 C22.7,40.5 22,38.4 20.3,37.6 C19.8,37.4 19.3,37.2 18.8,37.2 C17.5,37.2 16.3,37.9 15.7,39.1 C15.1,40.2 15.3,41.5 15.9,42.4 C15.4,42.2 14.9,42 14.4,42 C14.1,42 13.8,42 13.6,42.1 C13.9,41 13.6,39.7 12.7,38.8 C12.3,38.4 11.9,38.2 11.4,38 C12.6,36.7 12.6,34.6 11.3,33.3 C10.6,32.6 9.7,32.3 8.9,32.3 C8,32.3 7.1,32.6 6.5,33.3 C5.2,34.6 5.2,36.8 6.5,38.2 C6.9,38.6 7.3,38.8 7.8,39 C6.6,40.3 6.6,42.4 7.9,43.7 C8.6,44.4 9.5,44.7 10.3,44.7 C10.6,44.7 10.9,44.7 11.1,44.6 C10.8,45.7 11.1,47 12,47.9 C12.4,48.3 12.8,48.5 13.3,48.7 C12.1,50 12.1,52.1 13.4,53.4 C14.1,54.1 15,54.4 15.8,54.4 C16.6,54.4 17.4,54.1 18.1,53.5 C18.3,54 18.5,54.4 18.9,54.8 C19.6,55.5 20.5,55.8 21.3,55.8 C22.2,55.8 23.1,55.5 23.7,54.8 C24.9,53.6 24.9,51.5 23.6,50.1 L23.6,50.1 Z M16.5,39.7 C16.9,38.9 17.8,38.4 18.7,38.4 C19.1,38.4 19.4,38.5 19.8,38.7 C21,39.3 21.5,40.8 20.9,42 C20.5,42.8 19.6,43.3 18.7,43.3 C18.3,43.3 18,43.2 17.6,43 C16.4,42.3 15.9,40.9 16.5,39.7 L16.5,39.7 Z M7,34.2 C7.5,33.7 8.1,33.5 8.7,33.5 C9.4,33.5 10,33.8 10.4,34.2 C11.4,35.2 11.4,36.7 10.4,37.6 C10.2,37.8 10.1,37.9 9.9,38 C9.5,38 9,38.1 8.6,38.3 C8,38.3 7.4,38 7,37.6 C6,36.7 6,35.2 7,34.2 L7,34.2 Z M10.1,43.9 C9.4,43.9 8.8,43.6 8.4,43.2 C7.4,42.2 7.4,40.7 8.4,39.8 C8.6,39.6 8.7,39.5 8.9,39.4 C9.3,39.4 9.8,39.3 10.2,39.1 C10.8,39.1 11.4,39.4 11.8,39.8 C12.7,40.7 12.7,42.2 11.8,43.2 L11.8,43.2 L11.8,43.2 C11.3,43.7 10.7,43.9 10.1,43.9 L10.1,43.9 Z M12.5,44 C12.5,43.9 12.5,43.9 12.5,44 C12.5,43.9 12.6,43.9 12.5,44 C13,43.5 13.6,43.2 14.3,43.2 C15,43.2 15.6,43.5 16,43.9 C17,44.9 17,46.4 16,47.3 C15.8,47.5 15.7,47.6 15.5,47.7 C15.1,47.7 14.6,47.8 14.2,48 C13.6,48 13,47.7 12.6,47.3 C11.6,46.4 11.6,44.9 12.5,44 L12.5,44 Z M15.6,53.6 C14.9,53.6 14.3,53.3 13.9,52.9 C12.9,51.9 12.9,50.4 13.9,49.5 C14.1,49.3 14.2,49.2 14.4,49.1 C14.8,49.1 15.3,49 15.7,48.8 C16.3,48.8 16.9,49.1 17.3,49.5 C17.8,50 18,50.5 18,51.1 C17.8,51.5 17.7,51.9 17.7,52.4 C17.6,52.6 17.5,52.8 17.3,52.9 C16.9,53.3 16.3,53.6 15.6,53.6 L15.6,53.6 Z M21.2,55 C20.5,55 19.9,54.7 19.5,54.3 C19,53.8 18.8,53.3 18.8,52.7 C19,52.3 19.1,51.9 19.1,51.4 C19.2,51.2 19.3,51 19.5,50.9 C20,50.4 20.6,50.2 21.2,50.2 C21.9,50.2 22.5,50.5 22.9,50.9 C23.9,51.9 23.9,53.4 22.9,54.3 C22.4,54.7 21.8,55 21.2,55 L21.2,55 Z" id="Shape"></path>
                <path d="M33.5,53.4 C34.2,54.1 35.1,54.4 35.9,54.4 C36.8,54.4 37.7,54.1 38.3,53.4 C39.6,52.1 39.6,49.9 38.3,48.5 C37.6,47.8 36.7,47.5 35.9,47.5 C35.2,47.5 34.4,47.8 33.8,48.2 C33.8,47.3 33.5,46.4 32.8,45.7 C32.1,45 31.2,44.7 30.4,44.7 C29.6,44.7 28.6,45 28,45.7 C26.7,47 26.7,49.2 28,50.6 C28.7,51.3 29.6,51.6 30.4,51.6 C31.1,51.6 31.9,51.3 32.5,50.9 C32.5,51.8 32.8,52.7 33.5,53.4 L33.5,53.4 Z M35.9,48.6 C36.6,48.6 37.2,48.9 37.6,49.3 C38.6,50.3 38.6,51.8 37.6,52.7 C37.1,53.2 36.5,53.4 35.9,53.4 C35.3,53.4 34.6,53.1 34.2,52.7 C33.7,52.2 33.5,51.6 33.5,51 C33.5,50.4 33.8,49.7 34.2,49.3 C34.6,48.8 35.3,48.6 35.9,48.6 L35.9,48.6 Z M30.4,50.7 C29.7,50.7 29.1,50.4 28.7,50 C28.3,49.6 28,48.9 28,48.3 C28,47.6 28.3,47 28.7,46.6 C29.2,46.1 29.8,45.9 30.4,45.9 C31,45.9 31.7,46.2 32.1,46.6 C32.6,47.1 32.8,47.7 32.8,48.3 C32.8,49 32.5,49.6 32.1,50 C31.6,50.4 31,50.7 30.4,50.7 L30.4,50.7 Z" id="Shape"></path>
                <path d="M82.1,75.6 C81.4,74.9 80.5,74.5 79.6,74.5 C78.9,74.5 78.2,74.7 77.6,75.2 C77.6,74.3 77.3,73.4 76.6,72.7 C75.9,72 75,71.6 74.1,71.6 C73.2,71.6 72.4,71.9 71.7,72.6 C71.5,72.8 71.3,73 71.2,73.3 C71,72.8 70.8,72.3 70.4,71.9 C69.7,71.2 68.8,70.8 67.9,70.8 C67.1,70.8 66.3,71.1 65.6,71.7 C65.4,71.2 65.2,70.8 64.8,70.4 C64.1,69.7 63.2,69.3 62.3,69.3 C61.4,69.3 60.6,69.6 59.9,70.3 C58.5,71.6 58.5,73.8 59.8,75.2 C60.5,75.9 61.4,76.3 62.3,76.3 C63.1,76.3 63.9,76 64.6,75.4 C64.8,75.9 65,76.3 65.4,76.7 C66.1,77.4 67,77.8 67.9,77.8 C68.8,77.8 69.6,77.5 70.3,76.8 C70.5,76.6 70.7,76.4 70.8,76.1 C71,76.6 71.2,77.1 71.6,77.5 C72.3,78.2 73.2,78.6 74.1,78.6 C74.8,78.6 75.5,78.4 76.1,77.9 C76.1,78.8 76.4,79.7 77.1,80.4 C77.8,81.1 78.7,81.5 79.6,81.5 C80.5,81.5 81.3,81.2 82,80.5 C83.4,79.1 83.5,77 82.1,75.6 L82.1,75.6 Z M62.5,75.3 C61.8,75.3 61.2,75 60.7,74.6 C60.2,74.1 60,73.5 60,72.9 C60,72.2 60.3,71.6 60.7,71.2 C61.2,70.8 61.8,70.5 62.4,70.5 C63.1,70.5 63.7,70.8 64.2,71.2 C64.6,71.6 64.9,72.2 64.9,72.9 C64.7,73.3 64.6,73.7 64.6,74.2 C64.5,74.4 64.4,74.6 64.2,74.7 C63.7,75 63.1,75.3 62.5,75.3 L62.5,75.3 Z M69.7,76.1 C69.2,76.5 68.6,76.8 68,76.8 C67.3,76.8 66.7,76.5 66.2,76.1 C65.8,75.6 65.5,75 65.5,74.4 C65.7,74 65.8,73.6 65.8,73.1 C65.9,72.9 66,72.7 66.2,72.6 C66.7,72.2 67.3,71.9 67.9,71.9 C68.6,71.9 69.2,72.2 69.7,72.6 C70.7,73.6 70.6,75.1 69.7,76.1 L69.7,76.1 Z M74.2,77.6 C73.5,77.6 72.9,77.3 72.4,76.9 C71.5,75.9 71.5,74.4 72.5,73.5 C73,73.1 73.6,72.8 74.2,72.8 C74.9,72.8 75.5,73.1 76,73.5 C76.5,74 76.7,74.6 76.7,75.2 C76.7,75.8 76.4,76.5 76,76.9 C75.4,77.3 74.8,77.6 74.2,77.6 L74.2,77.6 Z M81.4,79.7 C80.9,80.1 80.3,80.4 79.7,80.4 C79,80.4 78.4,80.1 77.9,79.7 C77,78.7 77,77.2 78,76.3 C78.5,75.9 79.1,75.6 79.7,75.6 C80.4,75.6 81,75.9 81.5,76.3 C82,76.8 82.2,77.4 82.2,78 C82.1,78.7 81.8,79.3 81.4,79.7 L81.4,79.7 Z" id="Shape"></path>
                <path d="M51.9,21.2 C52.8,21.2 53.7,20.9 54.3,20.2 C54.8,19.7 55.1,19.1 55.2,18.5 C55.2,18.5 55.2,18.6 55.3,18.6 C56,19.3 56.9,19.6 57.7,19.6 C58.6,19.6 59.5,19.3 60.1,18.6 C60.9,17.8 61.2,16.7 61.1,15.7 C61.7,16 62.3,16.2 62.9,16.2 C63.8,16.2 64.7,15.9 65.3,15.2 C66.6,13.9 66.6,11.7 65.3,10.3 C64.6,9.6 63.7,9.3 62.9,9.3 C62.1,9.3 61.1,9.6 60.5,10.3 C59.7,11.1 59.4,12.2 59.5,13.2 C58.9,12.8 58.3,12.7 57.7,12.7 C56.8,12.7 55.9,13 55.3,13.7 C54.8,14.2 54.5,14.8 54.4,15.4 C54.4,15.4 54.4,15.3 54.3,15.3 C53.6,14.6 52.7,14.3 51.9,14.3 C51.1,14.3 50.1,14.6 49.5,15.3 C48.2,16.6 48.2,18.8 49.5,20.2 C50.2,20.8 51,21.2 51.9,21.2 L51.9,21.2 Z M61.3,11 C61.8,10.5 62.4,10.3 63,10.3 C63.6,10.3 64.3,10.6 64.7,11 C65.2,11.5 65.4,12.1 65.4,12.7 C65.4,13.3 65.1,14 64.7,14.4 C64.2,14.9 63.6,15.1 63,15.1 C62.3,15.1 61.7,14.8 61.3,14.4 C60.8,13.9 60.6,13.3 60.6,12.7 C60.6,12.1 60.8,11.4 61.3,11 L61.3,11 Z M56.1,14.4 C56.6,13.9 57.2,13.7 57.8,13.7 C58.5,13.7 59.1,14 59.5,14.4 C60,14.9 60.2,15.5 60.2,16.1 C60.2,16.7 59.9,17.4 59.5,17.8 C59,18.3 58.4,18.5 57.8,18.5 C57.1,18.5 56.5,18.2 56.1,17.8 C55.1,16.9 55.1,15.3 56.1,14.4 L56.1,14.4 Z M50.2,16 C50.7,15.5 51.3,15.3 51.9,15.3 C52.5,15.3 53.2,15.6 53.6,16 C54.1,16.5 54.3,17.1 54.3,17.7 C54.3,18.3 54,19 53.6,19.4 C53.1,19.9 52.5,20.1 51.9,20.1 C51.3,20.1 50.6,19.8 50.2,19.4 C49.7,18.9 49.5,18.3 49.5,17.7 C49.5,17.1 49.7,16.5 50.2,16 L50.2,16 Z" id="Shape"></path>
                <path d="M48.9,64.2 C48,64.2 47.1,64.5 46.5,65.2 C45.5,66.2 45.2,67.8 45.8,69.1 L45.5,69.1 C44.6,69.1 43.7,69.4 43.1,70.1 C42.4,70.8 42.1,71.7 42.1,72.6 C42,72.4 41.8,72.2 41.6,72 C40.9,71.3 40,71 39.2,71 C38.4,71 37.4,71.3 36.8,72 C35.5,73.3 35.5,75.2 36.6,76.6 C35.7,76.6 34.8,76.9 34.2,77.6 C33.5,78.3 33.2,79.1 33.2,80 C32.6,79.5 31.8,79.2 31,79.2 C30.1,79.2 29.2,79.5 28.6,80.2 C27.9,80.9 27.5,81.9 27.6,82.9 C27.1,82.7 26.7,82.6 26.2,82.6 C25.3,82.6 24.4,82.9 23.8,83.6 C22.5,84.9 22.5,87.1 23.8,88.5 C24.5,89.2 25.4,89.5 26.2,89.5 C27.1,89.5 28,89.2 28.6,88.5 C29.3,87.8 29.7,86.8 29.6,85.8 C30.1,86 30.5,86.1 31,86.1 C31.9,86.1 32.8,85.8 33.4,85.1 C34.1,84.4 34.4,83.6 34.4,82.7 C35,83.2 35.8,83.5 36.6,83.5 C37.5,83.5 38.4,83.2 39,82.5 C40.3,81.2 40.3,79.3 39.2,77.9 C40.1,77.9 41,77.6 41.6,76.9 C42.3,76.2 42.6,75.3 42.6,74.4 C42.7,74.6 42.9,74.8 43.1,75 C43.8,75.7 44.7,76 45.5,76 C46.4,76 47.3,75.7 47.9,75 C48.9,74 49.2,72.4 48.6,71.1 L48.9,71.1 C49.8,71.1 50.7,70.8 51.3,70.1 C52.6,68.8 52.6,66.6 51.3,65.2 C50.7,64.6 49.8,64.2 48.9,64.2 L48.9,64.2 Z M27.8,87.8 C27.3,88.3 26.7,88.5 26.1,88.5 C25.4,88.5 24.8,88.2 24.4,87.8 C23.9,87.3 23.7,86.7 23.7,86.1 C23.7,85.5 24,84.8 24.4,84.4 C24.9,83.9 25.5,83.7 26.1,83.7 C26.8,83.7 27.4,84 27.8,84.4 C28.3,84.9 28.5,85.5 28.5,86.1 C28.5,86.7 28.3,87.3 27.8,87.8 L27.8,87.8 Z M32.7,84.4 C32.2,84.9 31.6,85.1 31,85.1 C30.4,85.1 29.7,84.8 29.3,84.4 C28.8,83.9 28.6,83.3 28.6,82.7 C28.6,82.1 28.9,81.4 29.3,81 C29.8,80.5 30.4,80.3 31,80.3 C31.6,80.3 32.3,80.6 32.7,81 C33.6,81.9 33.6,83.5 32.7,84.4 L32.7,84.4 Z M38.3,81.8 C37.8,82.3 37.2,82.5 36.6,82.5 C35.9,82.5 35.3,82.2 34.9,81.8 C33.9,80.8 33.9,79.3 34.9,78.4 C35.4,77.9 36,77.7 36.6,77.7 C37.3,77.7 37.9,78 38.3,78.4 C38.8,78.9 39,79.5 39,80.1 C39,80.7 38.7,81.3 38.3,81.8 L38.3,81.8 Z M40.9,76.2 C40.4,76.7 39.8,76.9 39.2,76.9 C38.6,76.9 37.9,76.6 37.5,76.2 C36.5,75.2 36.5,73.7 37.5,72.8 C38,72.3 38.6,72.1 39.2,72.1 C39.9,72.1 40.5,72.4 40.9,72.8 C41.9,73.7 41.9,75.2 40.9,76.2 L40.9,76.2 Z M47.3,74.2 C46.8,74.7 46.2,74.9 45.6,74.9 C44.9,74.9 44.3,74.6 43.9,74.2 C43.5,73.8 43.2,73.1 43.2,72.5 C43.2,71.9 43.5,71.2 43.9,70.8 C44.4,70.3 45,70.1 45.6,70.1 C46.3,70.1 46.9,70.4 47.3,70.8 C47.7,71.2 48,71.9 48,72.5 C48,73.1 47.7,73.8 47.3,74.2 L47.3,74.2 Z M50.6,69.4 C50.1,69.9 49.5,70.1 48.9,70.1 C48.3,70.1 47.6,69.8 47.2,69.4 C46.2,68.4 46.2,66.9 47.2,66 C47.7,65.5 48.3,65.3 48.9,65.3 C49.5,65.3 50.2,65.6 50.6,66 C51.6,66.9 51.6,68.4 50.6,69.4 L50.6,69.4 Z" id="Shape"></path>
                <path d="M55,49.4 C54.1,49.4 53.2,49.7 52.6,50.4 C51.3,51.7 51.3,53.6 52.4,55 C51.5,55 50.6,55.3 50,56 C48.7,57.3 48.7,59.5 50,60.9 C50.7,61.6 51.6,61.9 52.4,61.9 C53.3,61.9 54.2,61.6 54.8,60.9 C56.1,59.6 56.1,57.7 55,56.3 C55.9,56.3 56.8,56 57.4,55.3 C58.7,54 58.7,51.8 57.4,50.4 C56.7,49.7 55.8,49.4 55,49.4 L55,49.4 Z M54,60.1 C53.5,60.6 52.9,60.8 52.3,60.8 C51.6,60.8 51,60.5 50.6,60.1 C50.1,59.6 49.9,59 49.9,58.4 C49.9,57.8 50.2,57.1 50.6,56.7 C51.1,56.2 51.7,56 52.3,56 C53,56 53.6,56.3 54,56.7 C54.5,57.2 54.7,57.8 54.7,58.4 C54.7,59 54.5,59.7 54,60.1 L54,60.1 Z M56.7,54.5 C56.2,55 55.6,55.2 55,55.2 C54.4,55.2 53.7,54.9 53.3,54.5 C52.3,53.5 52.3,52 53.3,51.1 C53.8,50.6 54.4,50.4 55,50.4 C55.6,50.4 56.3,50.7 56.7,51.1 C57.6,52 57.6,53.6 56.7,54.5 L56.7,54.5 Z" id="Shape"></path>
            </g>
        </g>
    </g>
</svg>