<?xml version="1.0" encoding="UTF-8" standalone="no"?>
<svg width="92px" height="92px" viewBox="0 0 92 92" version="1.1" xmlns="http://www.w3.org/2000/svg" xmlns:xlink="http://www.w3.org/1999/xlink">
    <!-- Generator: Sketch 39 (31667) - http://www.bohemiancoding.com/sketch -->
    <title>research</title>
    <desc>Created with Sketch.</desc>
    <defs>
        <filter x="-50%" y="-50%" width="200%" height="200%" filterUnits="objectBoundingBox" id="filter-1">
            <feOffset dx="0" dy="2" in="SourceAlpha" result="shadowOffsetOuter1"></feOffset>
            <feGaussianBlur stdDeviation="2" in="shadowOffsetOuter1" result="shadowBlurOuter1"></feGaussianBlur>
            <feColorMatrix values="0 0 0 0 0   0 0 0 0 0   0 0 0 0 0  0 0 0 0.5 0" type="matrix" in="shadowBlurOuter1" result="shadowMatrixOuter1"></feColorMatrix>
            <feMerge>
                <feMergeNode in="shadowMatrixOuter1"></feMergeNode>
                <feMergeNode in="SourceGraphic"></feMergeNode>
            </feMerge>
        </filter>
    </defs>
    <g id="Page-1" stroke="none" stroke-width="1" fill="none" fill-rule="evenodd">
        <g id="research" filter="url(#filter-1)" transform="translate(4.000000, 2.000000)" fill="#FFFFFF">
            <g id="Page-1">
                <g id="noun_30745_cc">
                    <path d="M73.271,43.96 C73.484,43.345 73.605,42.688 73.605,42 C73.605,41.156 73.429,40.354 73.115,39.625 C73.491,39.342 73.878,39.059 74.238,38.776 C81.536,33.047 84.596,28.136 83.086,24.576 C81.962,21.925 78.611,20.581 73.126,20.581 C70.898,20.581 68.367,20.81 65.616,21.235 C65.044,19.705 63.87,18.47 62.378,17.825 C63.573,8.974 62.732,2.246 58.733,0.628 C58.168,0.399 57.557,0.284 56.921,0.284 C52.537,0.284 47.047,5.86 41.762,13.908 C36.381,6.005 30.837,0.537 26.47,0.537 C25.802,0.537 25.162,0.662 24.575,0.912 C20.01,2.85 19.729,11.476 21.96,22.278 C17.91,21.513 14.222,21.099 11.105,21.099 C5.271,21.099 1.747,22.499 0.628,25.265 C-1.232,29.865 4.666,36.161 13.878,42.22 C12.412,43.221 11.036,44.225 9.763,45.224 C2.466,50.952 -0.594,55.862 0.915,59.418 C1.773,61.445 3.945,62.702 7.368,63.185 C8.041,65.762 10.378,67.667 13.167,67.667 C16.145,67.667 18.607,65.497 19.079,62.654 C20.121,62.482 21.191,62.284 22.29,62.057 C20.24,72.89 20.666,81.507 25.266,83.372 C25.831,83.599 26.44,83.716 27.077,83.716 C31.46,83.716 36.949,78.139 42.234,70.089 C47.615,77.991 53.159,83.458 57.526,83.458 C58.198,83.458 58.833,83.331 59.42,83.083 C63.987,81.145 64.269,72.519 62.036,61.716 C66.091,62.482 69.78,62.896 72.901,62.896 C78.731,62.896 82.253,61.498 83.374,58.734 C85.008,54.687 80.628,49.321 73.271,43.96 L73.271,43.96 L73.271,43.96 Z M46.025,51.502 C44.708,52.061 43.396,52.59 42.09,53.104 C40.775,52.613 39.454,52.105 38.129,51.569 C36.783,51.025 35.479,50.474 34.206,49.92 C33.628,48.654 33.056,47.358 32.492,46.028 C31.927,44.695 31.396,43.387 30.889,42.099 C31.376,40.798 31.888,39.476 32.432,38.13 C32.973,36.792 33.522,35.485 34.077,34.211 C35.354,33.629 36.653,33.059 37.969,32.501 C39.288,31.941 40.602,31.411 41.911,30.896 C43.225,31.387 44.546,31.895 45.87,32.43 C47.209,32.972 48.515,33.522 49.79,34.077 C50.367,35.343 50.938,36.64 51.502,37.97 C52.065,39.298 52.599,40.609 53.107,41.902 C52.62,43.202 52.109,44.523 51.565,45.868 C51.023,47.208 50.473,48.515 49.919,49.791 C48.641,50.372 47.342,50.943 46.025,51.502 L46.025,51.502 L46.025,51.502 Z M48.208,53.58 C47.98,54.067 47.751,54.545 47.521,55.02 C47.019,54.854 46.514,54.683 46.007,54.509 C46.374,54.357 46.74,54.21 47.108,54.054 C47.478,53.898 47.842,53.738 48.208,53.58 L48.208,53.58 L48.208,53.58 Z M38.203,54.576 C37.699,54.759 37.198,54.935 36.697,55.11 C36.46,54.639 36.222,54.165 35.987,53.682 C36.354,53.833 36.721,53.988 37.089,54.136 C37.461,54.287 37.832,54.43 38.203,54.576 L38.203,54.576 L38.203,54.576 Z M29.486,46.01 C29.638,46.377 29.789,46.744 29.944,47.11 C30.099,47.476 30.259,47.842 30.418,48.209 C29.931,47.98 29.45,47.753 28.976,47.524 C29.141,47.023 29.311,46.519 29.486,46.01 L29.486,46.01 L29.486,46.01 Z M28.882,36.697 C29.357,36.458 29.834,36.22 30.317,35.984 C30.165,36.352 30.011,36.72 29.862,37.088 C29.712,37.459 29.566,37.832 29.419,38.204 C29.236,37.698 29.057,37.195 28.882,36.697 L28.882,36.697 L28.882,36.697 Z M27.985,34.048 C27.042,31.166 26.253,28.434 25.616,25.883 C28.246,26.501 30.994,27.249 33.826,28.126 C33.19,29.448 32.569,30.785 31.969,32.131 C30.617,32.758 29.288,33.398 27.985,34.048 L27.985,34.048 L27.985,34.048 Z M26.407,37.969 C26.892,39.353 27.402,40.738 27.932,42.118 C27.426,43.506 26.939,44.898 26.477,46.289 C23.769,44.917 21.275,43.541 19.019,42.186 C21.32,40.759 23.793,39.347 26.407,37.969 L26.407,37.969 L26.407,37.969 Z M28.125,50.174 C29.445,50.809 30.783,51.427 32.132,52.028 C32.755,53.366 33.399,54.694 34.059,56.007 C31.241,56.933 28.504,57.73 25.888,58.392 C26.483,55.826 27.229,53.077 28.125,50.174 L28.125,50.174 L28.125,50.174 Z M35.788,30.421 C36.017,29.932 36.246,29.453 36.476,28.976 C36.98,29.143 37.486,29.314 37.994,29.488 C37.625,29.641 37.256,29.79 36.887,29.946 C36.518,30.103 36.154,30.263 35.788,30.421 L35.788,30.421 L35.788,30.421 Z M45.8,29.421 C46.305,29.238 46.805,29.062 47.306,28.886 C47.543,29.358 47.78,29.832 48.016,30.315 C47.648,30.163 47.28,30.008 46.912,29.859 C46.54,29.71 46.171,29.568 45.8,29.421 L45.8,29.421 L45.8,29.421 Z M57.336,28.704 C56.902,30.352 56.419,32.056 55.872,33.824 C54.551,33.189 53.212,32.57 51.862,31.969 C51.239,30.633 50.595,29.306 49.937,27.993 C51.627,27.437 53.276,26.944 54.899,26.483 C55.487,27.432 56.33,28.204 57.336,28.704 L57.336,28.704 L57.336,28.704 Z M54.138,46.908 C54.287,46.538 54.434,46.165 54.58,45.793 C54.764,46.3 54.942,46.802 55.117,47.301 C54.641,47.54 54.165,47.779 53.681,48.015 C53.835,47.646 53.988,47.277 54.138,46.908 L54.138,46.908 L54.138,46.908 Z M53.577,35.785 C54.065,36.014 54.547,36.243 55.024,36.472 C54.857,36.974 54.686,37.48 54.511,37.991 C54.358,37.622 54.206,37.253 54.051,36.887 C53.896,36.519 53.736,36.152 53.577,35.785 L53.577,35.785 L53.577,35.785 Z M52.026,51.869 C53.382,51.24 54.714,50.599 56.019,49.948 C56.962,52.816 57.755,55.549 58.409,58.121 C55.77,57.501 53.013,56.752 50.171,55.871 C50.807,54.55 51.427,53.215 52.026,51.869 L52.026,51.869 L52.026,51.869 Z M57.589,46.03 C57.104,44.647 56.595,43.262 56.066,41.883 C56.573,40.491 57.061,39.095 57.524,37.7 C59.065,38.478 60.532,39.26 61.939,40.04 C61.726,40.655 61.605,41.312 61.605,42 C61.605,42.584 61.693,43.146 61.848,43.681 C60.475,44.472 59.057,45.257 57.589,46.03 L57.589,46.03 L57.589,46.03 Z M80.533,25.658 C81.249,27.344 79.521,31.104 72.524,36.595 C72.179,36.866 71.824,37.137 71.462,37.408 C70.42,36.53 69.075,36 67.604,36 C65.965,36 64.481,36.659 63.399,37.723 C61.773,36.815 60.095,35.923 58.374,35.055 C58.975,33.126 59.52,31.215 60.016,29.332 C63.106,29.324 65.644,26.982 65.965,23.977 C68.595,23.568 71.005,23.352 73.125,23.352 C77.212,23.352 79.912,24.193 80.533,25.658 L80.533,25.658 L80.533,25.658 Z M56.921,3.056 C57.205,3.056 57.457,3.101 57.693,3.196 C59.796,4.048 60.672,9.184 59.618,17.352 C56.482,17.55 54,20.149 54,23.333 C54,23.506 54.012,23.675 54.025,23.844 C52.272,24.345 50.481,24.896 48.658,25.5 C46.979,22.307 45.215,19.242 43.415,16.417 C48.883,7.884 53.948,3.056 56.921,3.056 L56.921,3.056 L56.921,3.056 Z M41.805,19.019 C43.202,21.268 44.617,23.737 46.026,26.402 C44.657,26.885 43.278,27.389 41.887,27.924 C40.486,27.411 39.095,26.93 37.714,26.469 C39.075,23.781 40.447,21.29 41.805,19.019 L41.805,19.019 L41.805,19.019 Z M25.658,3.464 C25.904,3.36 26.17,3.308 26.47,3.308 C29.444,3.308 34.569,8.054 40.151,16.447 C38.401,19.3 36.69,22.392 35.065,25.613 C31.55,24.514 28.139,23.593 24.92,22.88 C22.505,11.715 23.152,4.528 25.658,3.464 L25.658,3.464 L25.658,3.464 Z M3.197,26.305 C3.824,24.758 6.705,23.871 11.104,23.871 C14.364,23.871 18.282,24.343 22.616,25.222 C23.393,28.473 24.369,31.872 25.503,35.313 C22.245,37.017 19.192,38.778 16.402,40.558 C6.8,34.369 2.177,28.83 3.197,26.305 L3.197,26.305 L3.197,26.305 Z M22.899,59.099 C21.518,59.403 20.185,59.659 18.895,59.875 C18.133,57.437 15.857,55.667 13.167,55.667 C10.3,55.667 7.908,57.679 7.313,60.365 C5.245,60.009 3.882,59.316 3.468,58.336 C2.753,56.65 4.482,52.895 11.476,47.404 C12.984,46.22 14.648,45.03 16.435,43.843 C19.287,45.593 22.384,47.309 25.624,48.942 C24.544,52.408 23.623,55.83 22.899,59.099 L22.899,59.099 L22.899,59.099 Z M27.077,80.945 C26.792,80.945 26.54,80.894 26.306,80.8 C23.781,79.777 23.014,72.602 25.242,61.398 C28.447,60.632 31.839,59.657 35.338,58.498 C37.017,61.691 38.782,64.756 40.581,67.58 C35.112,76.116 30.048,80.945 27.077,80.945 L27.077,80.945 L27.077,80.945 Z M42.201,64.964 C40.802,62.716 39.386,60.257 37.977,57.596 C39.347,57.113 40.726,56.609 42.117,56.073 C43.516,56.585 44.905,57.065 46.285,57.526 C44.926,60.209 43.556,62.696 42.201,64.964 L42.201,64.964 L42.201,64.964 Z M58.337,80.533 C55.638,81.644 50.026,76.808 43.854,67.537 C45.602,64.687 47.312,61.599 48.935,58.382 C52.466,59.486 55.893,60.409 59.125,61.124 C61.525,71.978 61.127,79.35 58.337,80.533 L58.337,80.533 L58.337,80.533 Z M80.801,57.695 C80.177,59.24 77.297,60.127 72.901,60.127 C69.638,60.127 65.716,59.654 61.38,58.775 C60.604,55.525 59.628,52.128 58.494,48.687 C60.125,47.833 61.704,46.966 63.224,46.09 C64.318,47.263 65.873,48 67.604,48 C69.248,48 70.735,47.339 71.818,46.27 C78.431,51.099 81.754,55.342 80.801,57.695 L80.801,57.695 L80.801,57.695 Z" id="Shape"></path>
                </g>
            </g>
        </g>
    </g>
</svg>