<?xml version="1.0" encoding="UTF-8" standalone="no"?>
<svg width="86px" height="90px" viewBox="0 0 86 90" version="1.1" xmlns="http://www.w3.org/2000/svg" xmlns:xlink="http://www.w3.org/1999/xlink">
    <!-- Generator: Sketch 3.8.3 (29802) - http://www.bohemiancoding.com/sketch -->
    <title>noun_101832_cc</title>
    <desc>Created with Sketch.</desc>
    <defs></defs>
    <g id="Page-1" stroke="none" stroke-width="1" fill="none" fill-rule="evenodd">
        <g id="noun_101832_cc" transform="translate(-2.000000, 0.000000)">
            <rect id="Rectangle-path" x="0" y="0" width="90" height="90"></rect>
            <g id="Group" transform="translate(2.000000, 0.000000)" fill="#000000">
                <path d="M42.978,27.947 C35.001,27.947 28.511,34.437 28.511,42.414 C28.511,43.298 28.603,44.161 28.756,45.002 C28.603,45.843 28.511,46.705 28.511,47.59 C28.511,55.567 35.001,62.056 42.978,62.056 C50.955,62.056 57.445,55.567 57.445,47.59 C57.445,46.705 57.353,45.843 57.2,45.002 C57.353,44.161 57.445,43.298 57.445,42.414 C57.444,34.438 50.954,27.947 42.978,27.947 L42.978,27.947 Z M42.978,61.066 C35.562,61.066 29.529,55.046 29.502,47.638 C31.603,53.037 36.844,56.88 42.978,56.88 C49.111,56.88 54.353,53.037 56.454,47.638 C56.427,55.047 50.394,61.066 42.978,61.066 L42.978,61.066 Z M56.456,42.414 C56.456,42.848 56.431,43.276 56.39,43.701 C56.349,44.141 56.285,44.575 56.201,45.002 C54.99,51.198 49.524,55.892 42.978,55.892 C36.432,55.892 30.966,51.199 29.755,45.002 C29.672,44.574 29.607,44.141 29.565,43.701 C29.525,43.277 29.5,42.848 29.5,42.414 C29.5,42.397 29.502,42.382 29.502,42.365 C29.529,34.956 35.562,28.936 42.978,28.936 C50.394,28.936 56.427,34.956 56.454,42.365 C56.454,42.382 56.456,42.397 56.456,42.414 L56.456,42.414 Z" id="Shape"></path>
                <path d="M85.389,42.414 C85.389,19.028 66.364,0.001 42.978,0.001 C19.592,0.001 0.566,19.028 0.566,42.414 C0.566,43.284 0.601,44.145 0.652,45.002 C0.6,45.858 0.566,46.72 0.566,47.59 C0.566,70.976 19.591,90.002 42.977,90.002 C66.363,90.002 85.389,70.976 85.389,47.59 C85.389,46.72 85.355,45.859 85.303,45.002 C85.354,44.146 85.389,43.284 85.389,42.414 L85.389,42.414 Z M42.978,89.013 C22.008,89.013 4.641,73.346 1.934,53.106 C6.685,71.333 23.285,84.827 42.978,84.827 C62.672,84.827 79.271,71.333 84.022,53.106 C81.315,73.346 63.947,89.013 42.978,89.013 L42.978,89.013 Z M84.362,40.93 C84.38,41.423 84.399,41.916 84.399,42.414 C84.399,43.284 84.364,44.145 84.31,45.002 C82.97,66.641 64.948,83.837 42.978,83.837 C21.008,83.837 2.985,66.641 1.644,45.002 C1.591,44.146 1.555,43.284 1.555,42.414 C1.555,41.916 1.576,41.423 1.593,40.93 C1.641,39.568 1.756,38.223 1.933,36.898 C4.64,16.657 22.008,0.991 42.978,0.991 C63.948,0.991 81.316,16.658 84.022,36.898 C84.199,38.224 84.313,39.568 84.362,40.93 L84.362,40.93 Z" id="Shape"></path>
                <path d="M42.978,13.974 C27.296,13.974 14.538,26.732 14.538,42.414 C14.538,43.287 14.584,44.149 14.662,45.002 C14.744,45.908 14.87,46.801 15.036,47.681 C15.204,48.574 15.414,49.452 15.664,50.316 C19.097,62.164 30.039,70.854 42.979,70.854 C55.919,70.854 66.861,62.165 70.293,50.316 C70.543,49.453 70.754,48.575 70.922,47.681 C71.087,46.801 71.214,45.909 71.296,45.002 C71.373,44.149 71.418,43.287 71.418,42.414 C71.417,26.732 58.659,13.974 42.978,13.974 L42.978,13.974 Z M42.978,69.864 C28.715,69.864 16.961,58.927 15.652,45.002 C16.961,31.075 28.714,20.139 42.978,20.139 C57.242,20.139 68.995,31.075 70.303,45.002 C68.994,58.928 57.241,69.864 42.978,69.864 L42.978,69.864 Z M42.978,19.15 C30.038,19.15 19.096,27.84 15.663,39.689 C17.036,25.828 28.762,14.964 42.978,14.964 C57.195,14.964 68.92,25.828 70.292,39.689 C66.859,27.84 55.918,19.15 42.978,19.15 L42.978,19.15 Z" id="Shape"></path>
            </g>
        </g>
    </g>
</svg>